<svg width="274" height="237" viewBox="0 0 274 237" fill="none" xmlns="http://www.w3.org/2000/svg">
<path d="M136.618 236.024C212.071 236.024 273.237 204.572 273.237 165.773C273.237 126.974 212.071 95.5218 136.618 95.5218C61.1661 95.5218 0 126.974 0 165.773C0 204.572 61.1661 236.024 136.618 236.024Z" fill="#F5F5F5"/>
<path d="M213.649 195.817C235.57 195.817 253.34 186.759 253.34 175.584C253.34 164.41 235.57 155.351 213.649 155.351C191.729 155.351 173.959 164.41 173.959 175.584C173.959 186.759 191.729 195.817 213.649 195.817Z" fill="#E6E6E6"/>
<path d="M136.616 202.472C161.371 202.472 181.439 192.243 181.439 179.626C181.439 167.009 161.371 156.781 136.616 156.781C111.861 156.781 91.793 167.009 91.793 179.626C91.793 192.243 111.861 202.472 136.616 202.472Z" fill="#E6E6E6"/>
<path d="M58.2393 195.817C80.1598 195.817 97.9298 186.758 97.9298 175.584C97.9298 164.41 80.1598 155.351 58.2393 155.351C36.3189 155.351 18.5488 164.41 18.5488 175.584C18.5488 186.758 36.3189 195.817 58.2393 195.817Z" fill="#E6E6E6"/>
<path d="M42.4368 148.868C42.9164 144.039 39.9453 133.727 34.8998 127.012C29.8544 120.297 21.3832 115.023 14.849 116.448C8.76342 117.773 8.72605 124.664 15.4346 129.751C22.1431 134.838 32.3585 141.366 34.7441 149.45L40.4 159.575L42.4368 148.868Z" fill="#2BBBC5"/>
<path opacity="0.1" d="M42.4368 148.868C42.9164 144.039 39.9453 133.727 34.8998 127.012C29.8544 120.297 21.3832 115.023 14.849 116.448C8.76342 117.773 8.72605 124.664 15.4346 129.751C22.1431 134.838 32.3585 141.366 34.7441 149.45L40.4 159.575L42.4368 148.868Z" fill="black"/>
<path d="M42.182 155.511C42.096 155.497 42.0174 155.459 41.9579 155.403C41.8984 155.346 41.8612 155.274 41.8519 155.197C39.8275 138.424 26.0554 123.85 17.3038 120.187C17.2561 120.167 17.2134 120.139 17.1782 120.104C17.1429 120.07 17.1158 120.029 17.0984 119.985C17.081 119.941 17.0737 119.895 17.0769 119.848C17.0801 119.802 17.0937 119.756 17.1169 119.714C17.1411 119.674 17.174 119.639 17.2139 119.61C17.2537 119.582 17.2996 119.56 17.3489 119.547C17.3982 119.535 17.4499 119.531 17.501 119.536C17.5521 119.541 17.6015 119.555 17.6464 119.577C26.5662 123.306 40.5936 138.121 42.6492 155.153C42.6552 155.199 42.6507 155.246 42.636 155.29C42.6214 155.335 42.5967 155.376 42.5636 155.412C42.5305 155.448 42.4896 155.478 42.4434 155.499C42.3971 155.521 42.3463 155.534 42.2941 155.538C42.2552 155.535 42.2173 155.526 42.182 155.511Z" fill="white"/>
<path d="M38.3526 165.85C37.7297 163.067 34.4284 158.294 28.7227 154.12C22.4066 149.505 14.091 146.97 12.4466 143.626C10.4721 139.612 14.4897 136.279 21.3166 137.577C28.1434 138.875 39.4489 148.12 40.1527 160.791L38.3526 165.85Z" fill="#2BBBC5"/>
<path d="M39.9716 163.106C39.8948 163.094 39.8236 163.062 39.7662 163.015C39.7089 162.969 39.6678 162.908 39.6477 162.842C35.3249 148.274 23.6083 142.367 18.021 141.284C17.9641 141.279 17.909 141.263 17.8593 141.238C17.8097 141.213 17.7667 141.178 17.7331 141.137C17.6996 141.097 17.6762 141.05 17.6646 141C17.653 140.951 17.6535 140.9 17.6659 140.85C17.6783 140.801 17.7024 140.755 17.7367 140.714C17.7709 140.674 17.8145 140.64 17.8645 140.615C17.9146 140.591 17.9699 140.576 18.027 140.572C18.084 140.567 18.1414 140.574 18.1954 140.591C24.3745 141.79 36.0101 147.79 40.4264 162.666C40.441 162.723 40.4398 162.782 40.4228 162.839C40.4059 162.895 40.3737 162.947 40.3291 162.991C40.2844 163.034 40.2286 163.067 40.1664 163.087C40.1041 163.107 40.0373 163.113 39.9716 163.106Z" fill="white"/>
<path d="M224.943 155.357C224.439 150.281 227.74 133.947 233.041 126.897C238.342 119.846 247.947 112.724 254.811 114.22C261.202 115.617 261.245 122.855 254.188 128.2C247.131 133.546 236.411 140.409 233.919 148.895L227.69 163.249L224.943 155.357Z" fill="#2BBBC5"/>
<path opacity="0.1" d="M224.943 155.357C224.439 150.281 227.74 133.947 233.041 126.897C238.342 119.846 247.947 112.724 254.811 114.22C261.202 115.617 261.245 122.855 254.188 128.2C247.131 133.546 236.411 140.409 233.919 148.895L227.69 163.249L224.943 155.357Z" fill="black"/>
<path d="M226.102 155.269C226.193 155.254 226.275 155.214 226.338 155.155C226.401 155.095 226.44 155.02 226.451 154.939C228.575 137.313 243.051 122.002 252.238 118.152C252.289 118.132 252.334 118.103 252.371 118.066C252.408 118.03 252.437 117.988 252.456 117.942C252.474 117.896 252.482 117.847 252.479 117.798C252.476 117.749 252.462 117.702 252.438 117.658C252.415 117.613 252.382 117.572 252.341 117.539C252.301 117.506 252.253 117.48 252.2 117.464C252.148 117.447 252.092 117.44 252.037 117.443C251.981 117.446 251.927 117.459 251.877 117.482C242.534 121.403 227.765 136.966 225.61 154.879C225.604 154.927 225.609 154.976 225.624 155.023C225.64 155.069 225.666 155.113 225.701 155.151C225.735 155.189 225.778 155.22 225.827 155.243C225.875 155.266 225.929 155.281 225.984 155.285C226.024 155.286 226.064 155.28 226.102 155.269Z" fill="white"/>
<path d="M230.134 166.131C230.757 163.205 233.435 158.239 239.047 153.482C245.899 147.647 256.881 144.798 258.612 141.289C260.687 137.076 256.781 133.931 249.668 135.537C240.112 137.692 228.969 147.515 228.24 160.835L230.134 166.131Z" fill="#2BBBC5"/>
<path d="M228.426 163.243C228.507 163.232 228.582 163.201 228.643 163.153C228.703 163.105 228.747 163.043 228.769 162.974C233.31 147.663 248.01 140.035 253.884 138.897C253.938 138.886 253.99 138.867 254.036 138.839C254.081 138.81 254.12 138.775 254.15 138.733C254.181 138.692 254.201 138.646 254.211 138.597C254.221 138.549 254.22 138.499 254.208 138.451C254.197 138.403 254.175 138.357 254.143 138.316C254.112 138.275 254.071 138.241 254.024 138.214C253.977 138.187 253.924 138.169 253.869 138.161C253.814 138.153 253.758 138.154 253.703 138.165C247.206 139.43 232.587 147.157 227.953 162.781C227.938 162.829 227.934 162.878 227.941 162.927C227.948 162.976 227.966 163.023 227.994 163.065C228.021 163.108 228.059 163.145 228.103 163.175C228.147 163.204 228.198 163.226 228.252 163.238C228.309 163.25 228.368 163.252 228.426 163.243Z" fill="white"/>
<path d="M232.603 56.3595C228.76 52.8618 222.375 44.7059 222.375 44.7059L218.439 32.6839C218.345 32.7169 220.444 32.7224 221.08 32.6839C225.334 32.9369 226.586 33.2339 229.233 35.8132C231.332 37.8425 239.1 48.5061 241.89 51.7619L249.527 42.4456C251.296 40.0808 251.009 37.4355 251.931 35.4997C252.853 33.5638 254.336 32.7169 255.525 30.9735C256.715 29.2302 257.002 28.0863 257.98 28.9772C258.958 29.8681 257.83 32.2769 257.681 32.8269C257.531 33.3769 256.049 35.0267 258.534 34.1578C261.019 33.2889 264.869 29.2852 265.865 28.4658C266.862 27.6463 267.379 28.9167 267.155 29.9231C266.931 30.9296 268.002 33.2229 267.609 34.8727C267.198 36.6381 266.906 37.4465 264.981 39.1569C263.181 40.7573 258.789 42.7151 257.07 44.8104C255.351 46.9058 251.682 53.4172 249.44 57.3439C246.587 62.332 243.46 65.1698 239.773 62.3815C236.945 60.2092 234.03 57.6574 232.603 56.3595Z" fill="#FFBDA7"/>
<path d="M222.775 32.5904C226.033 32.8544 227.759 33.5088 231.01 37.2705C234.261 41.0322 241.811 50.9369 241.811 50.9369L248.333 43.892C248.333 43.892 252.824 46.9112 255.184 50.4419C255.184 50.4419 248.874 59.7912 246.346 62.1505C243.817 64.5098 241.861 64.6968 238.422 62.1505C234.984 59.6042 225.068 49.947 225.068 49.947L222.775 32.5904Z" fill="#F0F0F0"/>
<path d="M241.811 50.9369C240.335 52.8233 239.382 55.8865 239.644 57.4319C239.644 57.4319 237.588 55.3421 241.045 49.936L241.811 50.9369Z" fill="#E0E0E0"/>
<path d="M194.037 172.868H201.443L202.92 161.291H194.037V172.868Z" fill="#FFBDA7"/>
<path d="M218.503 160.961L226.395 161.192L226.252 149.208L217.326 149.054L218.503 160.961Z" fill="#FFBDA7"/>
<path d="M194.116 79.8151C193.973 86.1616 192.447 128.162 192.447 128.162C191.919 131.594 191.605 135.049 191.506 138.512C191.307 146.904 193.3 166.824 193.3 166.824C193.742 168.633 201.398 169.37 202.413 167.736C202.413 167.736 206.599 138.842 207.789 130.537C208.823 123.289 212.242 99.586 212.242 99.586L214.883 122.877C214.782 125.591 214.855 128.309 215.101 131.016C215.406 134.866 217.593 157.518 217.593 157.518C217.63 158.932 225.591 160.098 226.936 158.019C226.936 158.019 229.428 124.933 229.534 121.408C229.621 117.388 228.985 79.3586 228.985 79.3586L194.116 79.8151Z" fill="#37474F"/>
<path d="M201.866 169.54L201.99 168.556C202.401 168.556 202.582 168.963 202.75 169.832C203.098 171.685 203.76 173.481 204.712 175.161C205.958 177.443 206.706 178.395 209.185 181.144C209.77 181.799 211.097 182.838 211.564 183.564C212.031 184.29 212.187 186.314 211.402 186.781C208.512 188.481 204.121 188.53 201.012 187.727C199.834 187.475 198.771 186.911 197.966 186.111C197.16 185.311 196.65 184.313 196.503 183.251C195.998 180.754 195.73 179.209 194.291 177.322C193.762 176.629 192.909 176.068 192.554 175.298C191.931 173.907 192.423 172.345 192.834 170.959C193.189 169.766 193.575 168.451 194.036 168.561V169.298C194.59 169.848 196.528 170.398 198.272 170.442C199.393 170.481 201.878 170.299 201.866 169.54Z" fill="#263238"/>
<path d="M226.371 159.3C226.564 159.416 226.994 159.85 227.81 160.521C228.622 161.145 229.475 161.727 230.364 162.264C232.17 163.432 234.068 164.485 236.044 165.416C238.393 166.554 240.51 167.247 243.32 168.363C243.614 168.468 243.882 168.625 244.104 168.825C244.274 169.003 244.392 169.214 244.447 169.441C244.529 169.91 244.463 170.389 244.255 170.826C244.047 171.263 243.706 171.64 243.27 171.916C242.389 172.459 241.39 172.834 240.336 173.016C237.953 173.607 235.442 173.673 233.023 173.209C230.933 172.686 228.949 171.877 227.143 170.811C225.639 169.869 223.926 169.218 222.116 168.902C220.541 168.704 218.603 168.77 217.233 167.94C215.719 167.016 216.324 165.042 216.753 163.342C217.221 161.494 217.326 158.668 218.279 158.728L218.354 159.471C218.441 160.268 220.634 160.637 222.328 160.637C223.736 160.637 226.396 160.312 226.383 159.729L226.371 159.3Z" fill="#263238"/>
<path d="M213.053 90.6987C216.074 89.6659 218.828 88.1059 221.151 86.1121C221.151 86.1121 219.861 89.4118 214.573 92.1616L214.922 121.144L212.256 99.575L213.053 90.6987Z" fill="#263238"/>
<path d="M206.051 31.8809C204.712 32.1614 200.445 33.1788 196.981 34.2568C195.235 34.8454 193.72 35.8696 192.621 37.2045C190.13 40.4438 192.372 47.6537 194.222 61.2046C194.085 69.9599 193.799 80.849 193.799 80.849C198.358 83.7802 219.63 85.7711 229.228 79.5841C229.228 79.5841 229.546 46.7242 228.911 42.4511C227.665 34.2678 224.071 32.0844 216.584 31.6995L206.051 31.8809Z" fill="#2BBBC5"/>
<path opacity="0.6" d="M206.051 31.8809C204.712 32.1614 200.445 33.1788 196.981 34.2568C195.235 34.8454 193.72 35.8696 192.621 37.2045C190.13 40.4438 192.372 47.6537 194.222 61.2046C194.085 69.9599 193.799 80.849 193.799 80.849C198.358 83.7802 219.63 85.7711 229.228 79.5841C229.228 79.5841 229.546 46.7242 228.911 42.4511C227.665 34.2678 224.071 32.0844 216.584 31.6995L206.051 31.8809Z" fill="white"/>
<path d="M219.126 41.4832C219.798 43.529 223.779 57.9049 223.218 62.9644C222.791 65.5609 221.996 68.0996 220.851 70.5208C219.126 74.123 217.973 70.9003 217.014 68.772C216.203 66.7876 215.659 64.7257 215.395 62.629C215.077 59.9122 216.316 51.6574 215.837 41.9781C216.199 41.5278 216.749 41.2227 217.365 41.1299C217.982 41.0371 218.615 41.1641 219.126 41.4832Z" fill="#2BBBC5"/>
<path opacity="0.2" d="M219.126 41.4832C219.798 43.529 223.779 57.9049 223.218 62.9644C222.791 65.5609 221.996 68.0996 220.851 70.5208C219.126 74.123 217.973 70.9003 217.014 68.772C216.203 66.7876 215.659 64.7257 215.395 62.629C215.077 59.9122 216.316 51.6574 215.837 41.9781C216.199 41.5278 216.749 41.2227 217.365 41.1299C217.982 41.0371 218.615 41.1641 219.126 41.4832Z" fill="black"/>
<path d="M219.275 36.8636C220.851 38.0515 219.126 41.4777 219.126 41.4777C217.998 41.2631 216.82 41.4404 215.837 41.9727C215.837 41.9727 212.723 40.7903 212.691 38.7334C212.691 36.8636 214.94 37.463 216.541 37.2155C218.216 36.9571 219.088 35.8627 219.275 36.8636Z" fill="#2BBBC5"/>
<path opacity="0.2" d="M219.275 36.8636C220.851 38.0515 219.126 41.4777 219.126 41.4777C217.998 41.2631 216.82 41.4404 215.837 41.9727C215.837 41.9727 212.723 40.7903 212.691 38.7334C212.691 36.8636 214.94 37.463 216.541 37.2155C218.216 36.9571 219.088 35.8627 219.275 36.8636Z" fill="black"/>
<path opacity="0.2" d="M219.124 41.4832C218.869 40.6803 217.629 40.7573 216.633 40.4823C216.074 40.2867 215.606 39.9301 215.306 39.4704C214.795 38.695 215.306 37.4081 216.016 37.2706C214.49 37.3641 212.677 37.0561 212.684 38.7335C212.684 40.7903 215.829 41.9727 215.829 41.9727C216.815 41.4409 217.996 41.2655 219.124 41.4832Z" fill="black"/>
<path d="M208.293 12.8855C208.348 14.5754 208.968 16.2131 210.076 17.592C211.184 18.9709 212.729 20.0292 214.518 20.6334C216.306 21.2375 218.257 21.3604 220.124 20.9866C221.992 20.6128 223.692 19.759 225.01 18.5329C226.329 17.3069 227.206 15.7635 227.532 14.0976C227.858 12.4317 227.618 10.7179 226.841 9.17238C226.065 7.62692 224.788 6.31907 223.171 5.41386C221.554 4.50866 219.669 4.04666 217.755 4.08617C216.478 4.11252 215.22 4.36137 214.052 4.8184C212.885 5.27544 211.831 5.93165 210.952 6.74934C210.073 7.56702 209.385 8.53006 208.929 9.5831C208.473 10.6361 208.257 11.7584 208.293 12.8855Z" fill="#455A64"/>
<path d="M201.4 19.1C201.4 19.1 203.151 25.5784 203.805 26.6344C204.238 27.2848 204.939 27.7633 205.761 27.9708L205.53 23.3896L201.4 19.1Z" fill="#455A64"/>
<path d="M203.118 9.72328C202.57 9.68104 202.018 9.74918 201.505 9.92257C200.991 10.096 200.529 10.3701 200.153 10.7242C198.907 11.9176 199.71 15.5528 201.399 19.1L204.363 19.3365L203.118 9.72328Z" fill="#455A64"/>
<path d="M205.254 19.32C204.669 19.6444 203.797 18.6545 203.043 17.9946C202.289 17.3346 199.885 16.4657 198.751 18.704C197.618 20.9423 199.947 23.9231 201.866 24.407C205.13 25.2375 205.566 23.3896 205.566 23.3896L206.12 35.0707C208.431 37.562 213.869 37.6995 216.566 37.2155C218.721 36.8305 218.752 35.4831 216.628 33.4153L216.529 30.0661C217.973 30.2406 219.435 30.2775 220.889 30.1761C223.262 29.7966 224.726 28.1082 225.38 25.8149C226.376 22.3117 226.626 18.4015 225.623 12C224.377 4.13018 213.944 4.30067 208.419 7.50691C202.894 10.7132 205.254 19.32 205.254 19.32Z" fill="#FFBDA7"/>
<path d="M205.278 20.1999C204.979 20.1999 203.795 18.55 203.041 18.0001C202.001 17.2026 203.116 9.75074 203.116 9.75074C202.749 9.10129 202.613 8.3694 202.724 7.65039C202.835 6.93138 203.189 6.25857 203.739 5.71957C205.103 4.32818 207.009 2.62332 213.388 3.15128C217.935 3.53075 222.905 4.67465 226.842 2.8598C227.243 4.00017 227.249 5.22029 226.86 6.36376C226.47 7.50722 225.703 8.52192 224.656 9.27778C224.656 9.27778 223.229 10.1302 219.448 10.6142C215.667 11.0981 209.737 10.7407 208.928 10.6637C207.825 10.5537 207.613 11.4996 207.09 14.0844C206.604 16.3282 206.28 20.1614 205.278 20.1999Z" fill="#455A64"/>
<path d="M203.144 10.3062L199.506 8.65632C199.615 8.44029 199.772 8.24604 199.968 8.08539C200.165 7.92474 200.396 7.80105 200.649 7.72183C200.901 7.64261 201.169 7.60952 201.436 7.62457C201.703 7.63962 201.964 7.70251 202.203 7.80939C202.696 8.03644 203.07 8.42386 203.245 8.88978C203.421 9.3557 203.384 9.86361 203.144 10.3062Z" fill="#455A64"/>
<path d="M216.503 30.0661C216.503 30.0661 211.158 29.2357 209.277 28.4163C208.169 27.9347 207.252 27.1676 206.648 26.2165C206.955 27.1709 207.476 28.0611 208.181 28.8343C209.582 30.3411 216.54 31.419 216.54 31.419L216.503 30.0661Z" fill="#F0997A"/>
<path d="M214.715 18.1705C214.696 18.3538 214.615 18.528 214.484 18.6714C214.354 18.8148 214.178 18.9211 213.979 18.9772C213.781 19.0333 213.568 19.0366 213.367 18.9869C213.166 18.9371 212.986 18.8364 212.85 18.6972C212.713 18.558 212.626 18.3865 212.599 18.204C212.572 18.0214 212.606 17.8358 212.697 17.6703C212.788 17.5047 212.932 17.3663 213.112 17.2725C213.291 17.1786 213.498 17.1332 213.706 17.1421C213.995 17.1604 214.263 17.279 214.452 17.4719C214.641 17.6647 214.736 17.916 214.715 18.1705Z" fill="#263238"/>
<path d="M214.026 14.6288L211.684 15.6352C211.536 15.3521 211.518 15.0295 211.635 14.7351C211.751 14.4408 211.992 14.1977 212.307 14.0569C212.461 13.9879 212.629 13.9481 212.802 13.9398C212.974 13.9316 213.147 13.9551 213.309 14.0088C213.47 14.0626 213.618 14.1455 213.741 14.2523C213.865 14.359 213.961 14.4872 214.026 14.6288Z" fill="#263238"/>
<path d="M215.326 24.506L218.652 25.309C218.6 25.503 218.504 25.6859 218.371 25.8468C218.237 26.0077 218.069 26.1434 217.875 26.2459C217.681 26.3484 217.466 26.4156 217.242 26.4436C217.018 26.4716 216.79 26.4598 216.572 26.4089C216.128 26.2921 215.752 26.03 215.521 25.6761C215.289 25.3223 215.219 24.9037 215.326 24.506Z" fill="#F0997A"/>
<path d="M225.07 15.5032L222.578 14.7498C222.621 14.6021 222.698 14.4639 222.805 14.344C222.912 14.2241 223.045 14.125 223.197 14.0531C223.35 13.9813 223.517 13.9381 223.689 13.9264C223.862 13.9148 224.035 13.9348 224.198 13.9854C224.539 14.0872 224.822 14.3032 224.985 14.587C225.148 14.8708 225.178 15.1998 225.07 15.5032Z" fill="#263238"/>
<path d="M223.822 17.9066C223.837 18.0315 223.825 18.158 223.785 18.2787C223.745 18.3994 223.679 18.512 223.59 18.61C223.501 18.7081 223.39 18.7897 223.266 18.8502C223.141 18.9106 223.004 18.9488 222.862 18.9625C222.574 18.9792 222.291 18.895 222.073 18.7282C221.855 18.5615 221.72 18.3255 221.697 18.0716C221.685 17.9484 221.701 17.8244 221.743 17.7065C221.785 17.5886 221.853 17.4791 221.942 17.3844C222.032 17.2897 222.143 17.2115 222.267 17.1544C222.391 17.0972 222.527 17.0622 222.666 17.0514C222.806 17.0406 222.946 17.0541 223.08 17.0912C223.213 17.1283 223.337 17.1883 223.444 17.2677C223.552 17.3471 223.64 17.4444 223.705 17.554C223.77 17.6637 223.809 17.7835 223.822 17.9066Z" fill="#263238"/>
<path d="M218.074 17.3731L218.46 23.0322L221.799 22.0093L218.074 17.3731Z" fill="#F0997A"/>
<path d="M216.542 37.2156C213.583 36.6656 206.576 34.2513 205.916 31.232L205.828 29.5822C204.676 29.5822 204.153 30.7096 203.586 32.332C203.349 36.5996 208.451 40.4988 213.552 41.5492C213.724 40.5597 214.106 39.6079 214.68 38.7444C215.115 38.0827 215.763 37.5505 216.542 37.2156Z" fill="#2BBBC5"/>
<path d="M216.516 30.484C217.297 30.6955 218.007 31.0732 218.584 31.584C222.414 35.0872 220.228 39.6793 220.228 39.6793C220.03 38.9156 219.537 38.2369 218.833 37.76C218.16 37.3561 217.353 37.1625 216.541 37.21C217.481 36.3246 217.114 34.7792 216.603 33.4098L216.516 30.484Z" fill="#2BBBC5"/>
<path d="M227.655 15.3493L227.138 15.3053C225.408 15.1195 223.657 15.1678 221.943 15.4483C220.274 15.8497 219.67 16.2952 218.754 16.3062C217.838 16.3172 217.172 15.8607 215.428 15.4648C213.598 15.1936 211.733 15.1547 209.89 15.3493L209.33 15.4043L201.4 17.2851C202.082 17.38 202.709 17.6721 203.182 18.1156L208.962 16.7352C209.043 16.8342 209.124 16.9221 209.18 16.9826C209.26 17.086 209.317 17.2016 209.348 17.3236C209.459 18.1151 209.653 18.8958 209.928 19.6554C210.091 19.9688 210.319 20.2524 210.6 20.4914C210.708 20.5827 210.825 20.6655 210.949 20.7388L211.155 20.8488C211.353 20.9436 211.562 21.021 211.778 21.0798L211.884 21.1073L212.046 21.1458L212.22 21.1788C212.401 21.2107 212.584 21.2328 212.768 21.2448H212.999H213.291C215.571 21.2448 216.555 20.3869 217.159 19.5014C217.764 18.616 217.67 17.3676 218.717 17.3676H218.816H218.91C219.682 17.5051 219.533 18.6545 219.994 19.4739C220.167 19.8192 220.41 20.134 220.71 20.4034L220.878 20.5409L220.972 20.6068L221.071 20.6728L221.158 20.7223L221.252 20.7773L221.327 20.8158H221.383C221.665 20.9483 221.967 21.0446 222.28 21.1018H222.361C222.724 21.1646 223.093 21.1941 223.463 21.1898C225.593 21.1898 226.372 20.1834 226.746 19.5399C227.073 18.7818 227.323 17.9997 227.493 17.2026C227.533 17.0857 227.606 16.9797 227.705 16.8946C227.971 16.661 228.151 16.362 228.222 16.0367C228.227 15.8828 228.175 15.7317 228.072 15.6072C227.969 15.4827 227.823 15.392 227.655 15.3493ZM216.593 18.682C216.439 19.1556 216.139 19.5821 215.727 19.9139C215.031 20.4245 214.138 20.6785 213.235 20.6233C212.792 20.6517 212.347 20.5855 211.938 20.4305C211.53 20.2754 211.169 20.036 210.887 19.7324L210.812 19.6444C210.789 19.6164 210.768 19.587 210.75 19.5564C210.727 19.5315 210.708 19.5037 210.694 19.4739L210.644 19.4024L210.613 19.3419C210.613 19.3419 210.613 19.3035 210.582 19.287C210.551 19.2705 210.551 19.232 210.538 19.199C210.495 19.111 210.463 19.023 210.432 18.9405C210.432 18.8855 210.395 18.836 210.382 18.7865C210.37 18.737 210.333 18.6105 210.314 18.5335C210.295 18.4565 210.314 18.506 210.314 18.4895V18.44C210.164 17.8241 210.009 16.6142 210.414 16.3392C210.818 16.0642 211.865 15.7892 213.528 15.8992H213.709C213.966 15.9202 214.222 15.9551 214.475 16.0037L214.774 16.0587C215.027 16.1115 215.276 16.1758 215.521 16.2512L215.746 16.3282L215.995 16.4217H216.045L216.132 16.4657C216.32 16.54 216.487 16.6487 216.624 16.7847C216.973 17.1916 216.811 17.9946 216.593 18.682ZM226.49 18.385C226.401 18.8084 226.203 19.2079 225.91 19.5523C225.617 19.8967 225.238 20.1767 224.802 20.3704C224.408 20.5154 223.984 20.5902 223.557 20.5904C223.087 20.6364 222.612 20.5763 222.176 20.4156C221.74 20.255 221.358 19.999 221.065 19.6719C221.048 19.6549 221.034 19.6365 221.021 19.6169C221.003 19.5962 220.986 19.5742 220.972 19.5509V19.5179L220.909 19.4189L220.847 19.3035C220.846 19.2851 220.846 19.2668 220.847 19.2485V19.199C220.843 19.1863 220.843 19.1731 220.847 19.1605C220.781 19.0133 220.733 18.8603 220.704 18.704C220.554 18.0166 220.498 17.2136 220.835 16.8342C221.171 16.4547 222.435 16.0367 223.644 15.9157C223.924 15.9157 224.186 15.8717 224.422 15.8662H225.114H225.319C225.451 15.8762 225.582 15.8927 225.712 15.9157H225.799H225.861H225.955L226.067 15.9432L226.247 16.0037C226.396 16.0523 226.534 16.121 226.659 16.2072C226.939 16.5592 226.677 17.7746 226.49 18.385Z" fill="#37474F"/>
<path d="M205.928 31.4135C205.928 31.4135 208.183 41.4062 209.154 48.1652C210.126 54.9241 209.946 74.0131 209.422 86.1121C209.049 94.9114 207.554 111.234 207.554 111.234C207.554 111.234 205.062 111.674 199.138 110.805C194.068 110.068 191.502 108.743 190.418 108.165C190.418 108.165 191.359 83.3788 192.075 74.7225C192.729 66.7427 192.698 62.354 192.698 62.354L190.567 44.134C190.567 44.134 190.729 32.6839 194.753 32.1999C198.908 31.6995 205.928 31.4135 205.928 31.4135Z" fill="#FAFAFA"/>
<path d="M202.078 47.8022C202.078 47.3842 202.028 46.4823 201.947 45.3384C201.549 39.7563 202.128 31.6775 204.258 31.276L204.452 32.0459C202.888 32.3429 202.645 42.5776 202.838 45.2889C202.925 46.4548 202.988 47.3732 202.969 47.8352L202.078 47.8022Z" fill="#2BBBC5"/>
<path d="M193.986 90.9077C192.959 89.3623 192.903 88.2074 191.352 86.827C190.687 86.2601 190.204 85.5488 189.95 84.7647C189.477 83.5273 189.502 82.2349 189.389 80.882L180.389 81.2505C180.464 84.2067 180.835 87.1512 181.497 90.0497C183.204 96.6877 184.855 99.4815 188.088 100.125C193.245 101.153 194.516 99.19 192.703 95.9068C191.925 94.5375 191.367 93.0788 191.046 91.5731C191.605 92.1542 192.253 92.6632 192.971 93.0855C193.337 93.3268 193.793 93.4365 194.248 93.3926C194.702 93.3487 195.121 93.1545 195.419 92.849C195.643 92.5575 194.796 92.1231 193.986 90.9077Z" fill="#FFBDA7"/>
<path d="M196.416 32.1999C196.416 32.1999 191.626 32.1394 188.941 34.2732C186.257 36.4071 184.83 42.1156 183.092 47.8406C181.354 53.5657 179.81 59.1202 179.355 63.1019C178.969 66.4016 180.227 83.9232 180.227 83.9232C180.227 83.9232 185.702 84.9406 189.913 82.9003L190.094 63.4594L197.039 43.969C198.307 40.0927 198.088 35.9549 196.416 32.1999Z" fill="#F0F0F0"/>
<path d="M205.759 28.1578C205.136 28.0423 204.557 28.3338 204.046 29.1037C203.535 29.8736 202.408 31.4905 202.408 31.4905C202.408 31.4905 201.829 36.8581 202.408 38.1945C202.912 39.3494 206.257 44.7939 206.257 44.7939C206.257 44.7939 206.039 50.0955 205.983 51.6794C205.927 53.2632 209.403 59.8737 209.795 62.9425C209.795 62.9425 209.97 50.464 209.453 46.9938C208.556 40.9442 207.435 33.7398 205.921 31.265L205.759 28.1578Z" fill="#EBEBEB"/>
<path d="M200.777 66.3192H200.703V65.7692C201.441 65.7186 202.149 65.4862 202.746 65.0983C202.106 64.7222 201.533 64.2645 201.045 63.7399C200.042 62.5905 197.844 54.3906 198.516 52.4823C199.089 50.8819 200.871 47.3512 202.453 47.2907H202.497C204.079 47.2907 206.165 50.6289 206.857 52.1688C207.716 54.0222 206.315 62.354 205.424 63.5749C204.99 64.1346 204.463 64.6333 203.861 65.0543C204.49 65.4001 205.219 65.5795 205.96 65.5712L206.041 66.1212C205.072 66.1339 204.121 65.8886 203.313 65.4172C202.579 65.9206 201.701 66.233 200.777 66.3192ZM202.528 47.8352C201.593 47.8682 199.924 50.4915 199.158 52.6363C198.535 54.3906 200.653 62.3265 201.581 63.3879C202.082 63.9192 202.675 64.3775 203.338 64.7463C203.966 64.3313 204.515 63.83 204.963 63.2614C205.785 62.134 207.131 54.0717 206.34 52.3668C205.381 50.2825 203.487 47.8352 202.546 47.8352H202.528Z" fill="#455A64"/>
<path d="M207.005 65.8077C207.011 65.9136 206.993 66.0195 206.952 66.1193C206.911 66.219 206.849 66.3107 206.767 66.3889C206.686 66.4671 206.589 66.5304 206.48 66.5751C206.371 66.6197 206.253 66.6449 206.133 66.6491C206.013 66.6538 205.892 66.6376 205.779 66.6013C205.666 66.565 205.562 66.5094 205.473 66.4376C205.385 66.3659 205.313 66.2794 205.262 66.1831C205.211 66.0868 205.182 65.9826 205.177 65.8765C205.171 65.7703 205.19 65.6642 205.231 65.5644C205.272 65.4645 205.335 65.3727 205.416 65.2943C205.497 65.216 205.595 65.1525 205.705 65.1075C205.814 65.0625 205.932 65.037 206.052 65.0323C206.172 65.0279 206.292 65.0444 206.405 65.081C206.518 65.1176 206.622 65.1735 206.71 65.2455C206.799 65.3175 206.871 65.4043 206.921 65.5007C206.972 65.5972 207 65.7015 207.005 65.8077Z" fill="#263238"/>
<path d="M201.649 66.0057C201.654 66.1119 201.635 66.2179 201.593 66.3177C201.552 66.4175 201.489 66.509 201.407 66.5872C201.325 66.6653 201.227 66.7285 201.118 66.7731C201.009 66.8177 200.891 66.8429 200.77 66.8471C200.65 66.8523 200.53 66.8364 200.417 66.8005C200.304 66.7645 200.201 66.7091 200.112 66.6375C200.023 66.5659 199.952 66.4795 199.901 66.3834C199.851 66.2872 199.822 66.1831 199.817 66.0772C199.812 65.971 199.83 65.865 199.872 65.7651C199.913 65.6652 199.976 65.5735 200.057 65.4951C200.138 65.4167 200.236 65.3532 200.345 65.3082C200.454 65.2633 200.572 65.2377 200.692 65.233C200.813 65.2283 200.933 65.2446 201.046 65.2809C201.159 65.3171 201.263 65.3728 201.352 65.4445C201.441 65.5163 201.512 65.6027 201.563 65.699C201.614 65.7953 201.643 65.8995 201.649 66.0057Z" fill="#263238"/>
<path d="M207.074 55.782L206.55 55.749C206.523 55.7476 206.497 55.7415 206.473 55.7311C206.448 55.7207 206.427 55.7061 206.409 55.6882C206.391 55.6703 206.377 55.6495 206.368 55.6269C206.359 55.6043 206.356 55.5804 206.357 55.5566C206.463 54.0167 206.407 52.8838 206.195 52.4328C205.273 50.442 203.361 47.9507 202.533 47.9837C201.704 48.0167 200.041 50.64 199.306 52.6913C199.15 53.7318 199.196 54.7883 199.443 55.815C199.452 55.8624 199.44 55.9111 199.408 55.9502C199.377 55.9894 199.329 56.0159 199.275 56.024L198.752 56.0955C198.725 56.0986 198.697 56.0969 198.671 56.0905C198.645 56.0841 198.62 56.0732 198.599 56.0583C198.577 56.0435 198.559 56.0251 198.546 56.0041C198.533 55.9831 198.524 55.9599 198.521 55.936C198.235 54.2257 198.197 53.0488 198.415 52.4438C198.802 51.3439 200.639 47.2247 202.489 47.1532C204.339 47.0817 206.569 51.0524 207.061 52.1028C207.335 52.6913 207.416 53.8627 207.292 55.5896C207.293 55.6152 207.289 55.641 207.279 55.6651C207.268 55.6892 207.252 55.711 207.232 55.7292C207.211 55.7474 207.186 55.7616 207.159 55.7707C207.132 55.7798 207.103 55.7836 207.074 55.782Z" fill="#2BBBC5"/>
<path d="M216.503 30.0661C217.326 30.1321 218.042 31.2045 219.936 31.716C223.474 32.6399 226.688 34.0588 227.678 35.9781C229.322 39.1569 229.59 39.7838 230.17 53.9397C230.749 68.0955 230.954 108.385 230.954 108.385C229.256 109.063 227.405 109.392 225.542 109.348C225.542 109.348 225.685 64.8563 225.348 54.8526C225.012 44.8489 223.293 39.9653 220.839 36.6656C220.147 33.9158 217.942 32.0789 216.479 30.737L216.503 30.0661Z" fill="#FAFAFA"/>
<path d="M220.851 36.6766C223.305 39.9763 225.018 44.8544 225.361 54.8636C225.398 56.0515 225.435 57.7233 225.467 59.7307C225.467 59.7307 227.485 50.6674 227.13 48.7316C226.775 46.7957 224.408 42.8141 224.408 42.8141C224.713 39.5143 223.841 35.7416 222.402 33.4648C222.067 32.9342 221.648 32.4489 221.156 32.0239C220.678 31.6816 220.167 31.3762 219.63 31.111C218.709 30.5326 217.638 30.1677 216.516 30.0496V30.7315C217.954 32.0899 220.16 33.9158 220.851 36.6766Z" fill="#EBEBEB"/>
<path d="M146.734 32.1339C151.437 32.0679 153.966 33.9322 157.417 38.7333C160.363 42.814 167.184 52.5867 169.102 55.529C171.27 58.8287 171.594 60.2036 169.875 62.6784C168.261 65.0432 152.963 80.6399 152.963 80.6399L149.02 74.4584L158.85 59.9506L147.326 44.9203L146.734 32.1339Z" fill="#B16668"/>
<path d="M146.428 31.9304C149.829 31.7709 151.947 32.3924 153.996 34.1302C156.045 35.8681 166.603 51.5198 166.603 51.5198C166.603 51.5198 165.083 54.7261 156.176 58.9167L147.455 48.4676L146.428 31.9304Z" fill="#2BBBC5"/>
<path opacity="0.2" d="M146.428 31.9304C149.829 31.7709 151.947 32.3924 153.996 34.1302C156.045 35.8681 166.603 51.5198 166.603 51.5198C166.603 51.5198 165.083 54.7261 156.176 58.9167L147.455 48.4676L146.428 31.9304Z" fill="black"/>
<path d="M169.786 175.601C169.948 175.601 170.197 177.218 169.3 177.9C168.26 178.691 165.208 179.995 161.172 179.549C157.135 179.104 154.943 177.988 153.342 176.8C151.741 175.612 149.461 173.923 147.636 173.566C145.942 173.236 144.104 172.559 143.562 172.098C143.021 171.636 143.095 169.579 143.095 169.579L169.786 175.601Z" fill="#455A64"/>
<path d="M144.717 161.643C144.565 161.642 144.418 161.69 144.303 161.778C144.188 161.866 144.114 161.988 144.094 162.121C143.97 162.671 143.839 164.321 143.571 165.267C143.151 166.906 143.016 168.592 143.172 170.266C143.397 171.317 146.156 172.048 147.925 172.642C150.001 173.447 151.928 174.523 153.643 175.832C155.512 177.212 159.53 178.647 162.158 178.631C165.273 178.631 168.767 177.724 169.57 176.431C170.567 174.853 169.788 173.94 165.173 172.032C164.301 171.674 161.236 170.068 160.19 169.491C157.362 167.918 154.584 165.729 153.257 162.946C153.153 162.605 152.92 162.306 152.597 162.099C152.314 161.993 152 161.968 151.7 162.028C150.931 162.124 150.183 162.322 149.482 162.616C148.859 162.88 147.981 163.166 147.994 163.881C148.011 164.124 148.07 164.363 148.168 164.591C148.224 164.734 148.268 164.926 148.124 165.009C147.981 165.091 147.813 165.009 147.695 164.904C147.241 164.493 146.824 164.052 146.449 163.584C146.235 163.342 145.99 163.123 145.72 162.93C145.447 162.792 145.183 162.642 144.929 162.479C144.649 162.275 144.717 161.967 144.717 161.643Z" fill="#2BBBC5"/>
<path opacity="0.9" d="M144.717 161.643C144.565 161.642 144.418 161.69 144.303 161.778C144.188 161.866 144.114 161.988 144.094 162.121C143.97 162.671 143.839 164.321 143.571 165.267C143.151 166.906 143.016 168.592 143.172 170.266C143.397 171.317 146.156 172.048 147.925 172.642C150.001 173.447 151.928 174.523 153.643 175.832C155.512 177.212 159.53 178.647 162.158 178.631C165.273 178.631 168.767 177.724 169.57 176.431C170.567 174.853 169.788 173.94 165.173 172.032C164.301 171.674 161.236 170.068 160.19 169.491C157.362 167.918 154.584 165.729 153.257 162.946C153.153 162.605 152.92 162.306 152.597 162.099C152.314 161.993 152 161.968 151.7 162.028C150.931 162.124 150.183 162.322 149.482 162.616C148.859 162.88 147.981 163.166 147.994 163.881C148.011 164.124 148.07 164.363 148.168 164.591C148.224 164.734 148.268 164.926 148.124 165.009C147.981 165.091 147.813 165.009 147.695 164.904C147.241 164.493 146.824 164.052 146.449 163.584C146.235 163.342 145.99 163.123 145.72 162.93C145.447 162.792 145.183 162.642 144.929 162.479C144.649 162.275 144.717 161.967 144.717 161.643Z" fill="white"/>
<path d="M153.642 175.832C152.838 175.249 151.985 174.682 151.15 174.182C151.15 174.182 156.576 177.097 158.768 175.771C160.182 174.924 159.51 173.885 159.472 173.571C159.435 173.258 162.923 171.828 164.293 171.685C164.68 171.872 164.997 172.021 165.197 172.103C169.812 173.989 170.591 174.902 169.594 176.503C168.791 177.773 166.255 178.768 162.238 178.768C159.578 178.719 155.536 177.212 153.642 175.832Z" fill="#2BBBC5"/>
<path opacity="0.8" d="M153.642 175.832C152.838 175.249 151.985 174.682 151.15 174.182C151.15 174.182 156.576 177.097 158.768 175.771C160.182 174.924 159.51 173.885 159.472 173.571C159.435 173.258 162.923 171.828 164.293 171.685C164.68 171.872 164.997 172.021 165.197 172.103C169.812 173.989 170.591 174.902 169.594 176.503C168.791 177.773 166.255 178.768 162.238 178.768C159.578 178.719 155.536 177.212 153.642 175.832Z" fill="white"/>
<path d="M159.042 172.581C161.914 173.593 160.687 174.066 159.889 174.171C159.092 174.275 154.283 171.779 151.312 169.722C148.241 167.577 146.329 165.234 145.164 164.448C144.741 164.151 144.28 163.793 143.875 163.452C143.95 162.902 144.012 162.391 144.068 162.121C144.088 161.988 144.162 161.866 144.277 161.778C144.392 161.69 144.539 161.642 144.691 161.643C144.691 161.967 144.635 162.275 144.915 162.523C145.169 162.686 145.433 162.836 145.706 162.974C145.977 163.167 146.221 163.386 146.435 163.628C146.811 164.096 147.227 164.537 147.681 164.948C150.197 167.753 156.202 171.57 159.042 172.581Z" fill="#2BBBC5"/>
<path d="M159.71 173.797C159.656 173.797 159.603 173.784 159.558 173.759C159.512 173.734 159.476 173.698 159.453 173.655C159.43 173.612 159.421 173.565 159.428 173.517C159.435 173.47 159.457 173.426 159.492 173.39C160.167 172.77 160.986 172.286 161.892 171.97C162.798 171.655 163.77 171.514 164.743 171.559C164.812 171.572 164.874 171.607 164.916 171.658C164.957 171.709 164.976 171.771 164.968 171.834C164.96 171.896 164.927 171.954 164.873 171.995C164.82 172.037 164.752 172.06 164.68 172.059C163.802 172.027 162.925 172.157 162.107 172.441C161.289 172.725 160.546 173.157 159.928 173.709C159.901 173.737 159.867 173.759 159.83 173.774C159.792 173.789 159.751 173.797 159.71 173.797Z" fill="#FAFAFA"/>
<path d="M157.206 172.438C157.139 172.436 157.076 172.415 157.025 172.378C156.968 172.335 156.932 172.274 156.925 172.209C156.918 172.143 156.941 172.077 156.988 172.026C157.666 171.41 158.485 170.928 159.39 170.614C160.296 170.299 161.267 170.158 162.239 170.2C162.276 170.203 162.312 170.212 162.346 170.228C162.379 170.243 162.408 170.264 162.432 170.29C162.456 170.315 162.474 170.345 162.484 170.377C162.495 170.409 162.498 170.442 162.494 170.475C162.49 170.508 162.479 170.539 162.461 170.568C162.443 170.597 162.419 170.622 162.39 170.643C162.361 170.663 162.328 170.678 162.292 170.687C162.257 170.696 162.219 170.699 162.182 170.695C161.303 170.664 160.426 170.795 159.607 171.079C158.788 171.363 158.044 171.794 157.424 172.345C157.398 172.374 157.365 172.398 157.327 172.414C157.289 172.43 157.248 172.439 157.206 172.438Z" fill="#FAFAFA"/>
<path d="M154.682 171.152C154.618 171.151 154.556 171.129 154.508 171.091C154.478 171.071 154.454 171.045 154.436 171.017C154.418 170.988 154.406 170.956 154.402 170.923C154.398 170.89 154.401 170.857 154.412 170.826C154.423 170.794 154.44 170.765 154.464 170.739C155.142 170.121 155.961 169.638 156.868 169.323C157.775 169.008 158.748 168.868 159.721 168.913C159.796 168.921 159.864 168.954 159.91 169.005C159.957 169.057 159.979 169.123 159.971 169.188C159.962 169.254 159.925 169.314 159.866 169.355C159.808 169.396 159.733 169.416 159.659 169.408C158.78 169.376 157.904 169.506 157.085 169.79C156.267 170.074 155.525 170.506 154.906 171.058C154.879 171.088 154.845 171.111 154.806 171.127C154.768 171.144 154.725 171.152 154.682 171.152Z" fill="#FAFAFA"/>
<path d="M152.383 169.678C152.318 169.678 152.254 169.659 152.203 169.623C152.146 169.58 152.11 169.519 152.103 169.453C152.096 169.388 152.118 169.322 152.165 169.271C152.843 168.654 153.662 168.171 154.567 167.855C155.473 167.54 156.444 167.398 157.416 167.439C157.457 167.439 157.496 167.446 157.533 167.46C157.57 167.474 157.604 167.495 157.631 167.521C157.658 167.548 157.679 167.579 157.691 167.612C157.704 167.646 157.709 167.682 157.705 167.717C157.701 167.753 157.688 167.787 157.668 167.818C157.648 167.849 157.621 167.875 157.589 167.896C157.556 167.917 157.519 167.932 157.48 167.94C157.44 167.947 157.4 167.947 157.36 167.94C156.481 167.907 155.603 168.036 154.783 168.321C153.964 168.605 153.221 169.037 152.601 169.59C152.575 169.618 152.542 169.641 152.504 169.656C152.466 169.672 152.425 169.679 152.383 169.678Z" fill="#FAFAFA"/>
<path d="M150.11 168.209C150.047 168.208 149.985 168.189 149.936 168.154C149.906 168.134 149.882 168.109 149.863 168.08C149.845 168.051 149.834 168.019 149.83 167.986C149.826 167.954 149.829 167.92 149.84 167.889C149.85 167.857 149.868 167.828 149.892 167.802C151.001 166.559 153.517 165.745 155.629 165.949C155.666 165.953 155.701 165.963 155.734 165.978C155.766 165.994 155.795 166.015 155.818 166.041C155.841 166.066 155.858 166.096 155.868 166.127C155.879 166.159 155.882 166.191 155.878 166.224C155.874 166.256 155.863 166.288 155.845 166.317C155.827 166.345 155.803 166.37 155.774 166.391C155.745 166.411 155.712 166.427 155.676 166.436C155.641 166.445 155.603 166.448 155.566 166.444C153.667 166.262 151.325 166.994 150.334 168.094C150.31 168.127 150.277 168.155 150.238 168.175C150.199 168.195 150.155 168.207 150.11 168.209Z" fill="#FAFAFA"/>
<path d="M126.159 181.881C126.278 184.301 126.035 185.934 125.231 187.436C124.428 188.937 122.646 189.537 120.753 189.289C118.859 189.042 116.361 188.145 115.595 186.116C114.829 184.087 114.773 182.651 114.941 180.38L126.159 181.881Z" fill="#455A64"/>
<path d="M116.823 165.097C116.064 165.218 116.201 168.473 116.138 171.746C116.064 175.26 115.054 176.8 114.955 179.681C114.849 182.981 115.204 184.406 116.718 186.281C118.231 188.156 123.015 189.652 124.946 186.638C126.522 184.18 126.304 181.628 125.768 178.389C125.214 175.051 124.796 172.702 124.659 170.14C124.529 167.692 124.454 165.317 123.762 165.102C123.762 165.465 123.762 165.922 123.762 166.279C123.762 166.554 123.825 167.879 123.401 167.929C123.332 167.626 123.295 167.319 123.289 167.01C123.303 166.731 123.196 166.458 122.99 166.246C122.735 166.076 122.425 165.986 122.106 165.988C121.342 165.915 120.575 165.879 119.807 165.878C119.421 165.878 119.041 165.878 118.661 165.938C118.333 165.963 118.011 166.033 117.708 166.147C117.62 166.18 117.54 166.229 117.476 166.292C117.411 166.355 117.363 166.429 117.334 166.51C117.309 166.634 117.309 166.76 117.334 166.884C117.365 167.109 117.365 167.336 117.334 167.56C117.334 167.659 117.259 167.786 117.147 167.769C117.035 167.753 117.01 167.665 116.998 167.582C116.954 167.192 116.998 166.9 116.942 166.444C116.942 166.235 116.942 165.944 116.942 165.729C116.942 165.515 116.83 165.306 116.823 165.097Z" fill="#2BBBC5"/>
<path opacity="0.9" d="M116.823 165.097C116.064 165.218 116.201 168.473 116.138 171.746C116.064 175.26 115.054 176.8 114.955 179.681C114.849 182.981 115.204 184.406 116.718 186.281C118.231 188.156 123.015 189.652 124.946 186.638C126.522 184.18 126.304 181.628 125.768 178.389C125.214 175.051 124.796 172.702 124.659 170.14C124.529 167.692 124.454 165.317 123.762 165.102C123.762 165.465 123.762 165.922 123.762 166.279C123.762 166.554 123.825 167.879 123.401 167.929C123.332 167.626 123.295 167.319 123.289 167.01C123.303 166.731 123.196 166.458 122.99 166.246C122.735 166.076 122.425 165.986 122.106 165.988C121.342 165.915 120.575 165.879 119.807 165.878C119.421 165.878 119.041 165.878 118.661 165.938C118.333 165.963 118.011 166.033 117.708 166.147C117.62 166.18 117.54 166.229 117.476 166.292C117.411 166.355 117.363 166.429 117.334 166.51C117.309 166.634 117.309 166.76 117.334 166.884C117.365 167.109 117.365 167.336 117.334 167.56C117.334 167.659 117.259 167.786 117.147 167.769C117.035 167.753 117.01 167.665 116.998 167.582C116.954 167.192 116.998 166.9 116.942 166.444C116.942 166.235 116.942 165.944 116.942 165.729C116.942 165.515 116.83 165.306 116.823 165.097Z" fill="white"/>
<path d="M115.023 178.741C115.023 179.214 114.905 182.36 115.927 182.833C116.948 183.306 117.322 180.858 117.322 180.858C117.322 180.858 119.683 179.984 123.376 181.034C123.252 181.557 123.999 183.168 124.915 182.734C125.83 182.299 125.812 178.702 125.812 178.658C126.316 181.755 126.472 184.229 124.946 186.616C123.015 189.63 118.231 188.107 116.718 186.259C115.204 184.411 114.849 182.959 114.955 179.659C114.967 179.351 114.992 179.038 115.023 178.741Z" fill="#2BBBC5"/>
<path opacity="0.8" d="M115.023 178.741C115.023 179.214 114.905 182.36 115.927 182.833C116.948 183.306 117.322 180.858 117.322 180.858C117.322 180.858 119.683 179.984 123.376 181.034C123.252 181.557 123.999 183.168 124.915 182.734C125.83 182.299 125.812 178.702 125.812 178.658C126.316 181.755 126.472 184.229 124.946 186.616C123.015 189.63 118.231 188.107 116.718 186.259C115.204 184.411 114.849 182.959 114.955 179.659C114.967 179.351 114.992 179.038 115.023 178.741Z" fill="white"/>
<path d="M117.626 181.04C117.745 182.217 116.381 181.936 116.138 180.281C115.895 178.625 116.474 174.6 116.138 171.746C116.206 168.473 116.063 165.218 116.823 165.097C116.823 165.141 116.823 165.179 116.823 165.218L116.91 166.867C116.91 167.109 116.91 167.318 116.947 167.571C117.203 169.975 117.346 174.638 117.365 176.849C117.364 178.249 117.452 179.648 117.626 181.04Z" fill="#2BBBC5"/>
<path d="M122.959 181.04C123.131 179.65 123.216 178.253 123.214 176.855C123.214 174.655 123.376 170.046 123.625 167.637C123.719 167.188 123.757 166.73 123.737 166.273C123.737 165.944 123.737 165.526 123.737 165.174C123.74 165.15 123.74 165.126 123.737 165.102C124.242 165.262 124.416 166.559 124.528 168.193C124.528 169.139 124.493 170.323 124.422 171.746C124.086 174.6 124.672 178.653 124.422 180.303C124.173 181.953 122.84 182.217 122.959 181.04Z" fill="#2BBBC5"/>
<path d="M123.456 181.122H123.35C121.432 180.534 119.345 180.534 117.427 181.122C117.391 181.14 117.351 181.15 117.311 181.153C117.27 181.156 117.229 181.151 117.191 181.139C117.152 181.126 117.117 181.107 117.088 181.082C117.059 181.056 117.036 181.026 117.021 180.992C117.007 180.959 117 180.923 117.002 180.887C117.005 180.851 117.016 180.815 117.035 180.783C117.054 180.752 117.08 180.724 117.112 180.701C117.144 180.679 117.182 180.663 117.221 180.655C119.26 180.002 121.49 179.991 123.537 180.622C123.572 180.633 123.605 180.651 123.632 180.674C123.659 180.696 123.681 180.724 123.696 180.754C123.711 180.784 123.719 180.817 123.72 180.85C123.72 180.883 123.713 180.916 123.699 180.946C123.682 180.993 123.65 181.034 123.607 181.065C123.564 181.097 123.512 181.116 123.456 181.122Z" fill="#FAFAFA"/>
<path d="M123.806 178.521C123.773 178.526 123.739 178.526 123.706 178.521C121.546 177.926 119.232 177.926 117.072 178.521C117.036 178.538 116.996 178.547 116.955 178.549C116.914 178.551 116.873 178.545 116.835 178.531C116.797 178.518 116.762 178.497 116.734 178.471C116.705 178.445 116.684 178.414 116.67 178.38C116.657 178.345 116.652 178.309 116.656 178.273C116.659 178.237 116.672 178.202 116.692 178.17C116.713 178.139 116.74 178.112 116.774 178.091C116.807 178.07 116.845 178.055 116.886 178.048C119.167 177.408 121.617 177.408 123.899 178.048C123.97 178.07 124.028 178.116 124.06 178.176C124.093 178.236 124.098 178.304 124.074 178.367C124.051 178.413 124.013 178.452 123.966 178.479C123.918 178.506 123.863 178.521 123.806 178.521Z" fill="#FAFAFA"/>
<path d="M116.979 176.052C116.915 176.05 116.854 176.029 116.806 175.993C116.757 175.957 116.723 175.908 116.71 175.853C116.696 175.798 116.704 175.741 116.731 175.69C116.758 175.64 116.804 175.599 116.86 175.573C120.161 174.248 123.712 175.48 123.855 175.535C123.89 175.546 123.922 175.564 123.95 175.587C123.977 175.609 123.999 175.637 124.014 175.667C124.029 175.697 124.037 175.73 124.037 175.763C124.038 175.796 124.031 175.829 124.017 175.859C123.987 175.92 123.931 175.969 123.862 175.994C123.792 176.02 123.714 176.021 123.643 175.997C123.643 175.997 120.168 174.792 117.097 176.03C117.059 176.042 117.019 176.05 116.979 176.052Z" fill="#FAFAFA"/>
<path d="M116.916 173.747C116.863 173.748 116.81 173.735 116.764 173.71C116.719 173.684 116.683 173.648 116.661 173.604C116.644 173.575 116.634 173.543 116.632 173.51C116.629 173.477 116.634 173.444 116.646 173.412C116.658 173.381 116.677 173.352 116.703 173.328C116.728 173.303 116.758 173.283 116.792 173.269C117.91 172.819 119.122 172.581 120.35 172.569C121.578 172.558 122.796 172.774 123.924 173.203C123.992 173.232 124.045 173.283 124.071 173.346C124.096 173.409 124.093 173.478 124.061 173.538C124.027 173.598 123.969 173.643 123.898 173.665C123.827 173.686 123.749 173.682 123.681 173.654C122.626 173.265 121.492 173.07 120.349 173.083C119.206 173.095 118.078 173.314 117.035 173.725C116.998 173.741 116.957 173.748 116.916 173.747Z" fill="#FAFAFA"/>
<path d="M116.854 171.163C116.8 171.162 116.748 171.149 116.703 171.123C116.658 171.098 116.622 171.062 116.598 171.02C116.566 170.96 116.561 170.891 116.586 170.828C116.61 170.765 116.662 170.714 116.729 170.684C120.118 169.21 123.768 170.618 123.917 170.684C123.951 170.698 123.982 170.717 124.007 170.74C124.033 170.764 124.053 170.792 124.066 170.823C124.08 170.854 124.086 170.886 124.085 170.919C124.084 170.952 124.076 170.984 124.061 171.014C124.045 171.044 124.024 171.071 123.997 171.094C123.97 171.116 123.938 171.134 123.903 171.146C123.869 171.157 123.832 171.163 123.794 171.162C123.757 171.161 123.721 171.154 123.687 171.141C123.649 171.141 120.124 169.766 116.978 171.141C116.939 171.156 116.897 171.164 116.854 171.163Z" fill="#EBEBEB"/>
<path d="M121.501 65.0707C119.414 69.3085 118.058 73.7982 117.477 78.3906C116.02 95.0983 116.805 119.087 116.805 119.087C116.636 120.836 115.384 124.801 114.543 132.484C113.547 141.564 114.799 172.334 114.799 172.334C114.799 172.334 120.947 175.573 125.737 171.889C125.737 171.889 131.299 129.591 132.589 120.561C133.716 112.686 136.862 95.6372 136.862 95.6372L140.543 120.847C140.543 120.847 140.2 127.936 140.443 132.517C140.717 137.846 142.405 164.998 142.405 164.998C142.405 164.998 150.858 167.522 154.633 163.936C154.633 163.936 155.53 126.275 155.66 119.863C155.91 107.285 155.66 84.3631 153.349 71.1697L121.501 65.0707Z" fill="#2BBBC5"/>
<path opacity="0.2" d="M121.501 65.0707C119.414 69.3085 118.058 73.7982 117.477 78.3906C116.02 95.0983 116.805 119.087 116.805 119.087C116.636 120.836 115.384 124.801 114.543 132.484C113.547 141.564 114.799 172.334 114.799 172.334C114.799 172.334 120.947 175.573 125.737 171.889C125.737 171.889 131.299 129.591 132.589 120.561C133.716 112.686 136.862 95.6372 136.862 95.6372L140.543 120.847C140.543 120.847 140.2 127.936 140.443 132.517C140.717 137.846 142.405 164.998 142.405 164.998C142.405 164.998 150.858 167.522 154.633 163.936C154.633 163.936 155.53 126.275 155.66 119.863C155.91 107.285 155.66 84.3631 153.349 71.1697L121.501 65.0707Z" fill="black"/>
<path opacity="0.2" d="M136.861 95.6317L138.182 87.6134C138.182 87.6134 145.856 86.706 149.332 83.8242C148.336 85.1996 147.009 86.3645 145.446 87.2361C143.883 88.1077 142.122 88.6646 140.287 88.8673L138.936 96.1212L140.1 117.822L136.861 95.6317Z" fill="black"/>
<path d="M152.77 52.9991C152.433 56.2989 152.353 62.7389 152.353 62.7389C153.704 71.1642 154.788 79.3915 154.788 79.3915C140.536 86.1065 119.028 80.6729 116.318 77.9011C117.658 69.6518 120.61 64.5152 122.547 59.8736L118.978 45.8332C118.978 45.8332 125.126 41.3181 124.584 32.1613L133.006 31.3859L141.041 31.5894L146.753 31.9469C149.62 34.4017 152.131 37.1616 154.227 40.1632C156.962 44.1119 157.068 49.023 152.77 52.9991Z" fill="#2BBBC5"/>
<path opacity="0.1" d="M143.096 52.4822C143.096 52.4822 139.358 55.386 134.811 54.2366C133.533 53.9564 132.359 53.3903 131.401 52.5926C130.443 51.795 129.734 50.7929 129.342 49.6829C129.342 49.6829 129.193 54.2146 134.948 55.4355C136.485 55.7806 138.108 55.6799 139.575 55.148C141.042 54.6161 142.277 53.6815 143.096 52.4822Z" fill="black"/>
<path d="M131.231 26.9313C131.231 25.6719 129.225 23.0486 127.394 20.1063C125.563 17.1641 123.588 12.4345 127.394 8.00731C131.2 3.58017 139.808 0.929389 144.879 3.05772C149.949 5.18604 151.363 10.2731 151.363 10.2731L131.231 26.9313Z" fill="#37474F"/>
<path d="M125.78 16.4546C125.783 16.4438 125.783 16.4325 125.78 16.4216C125.598 16.1556 125.309 15.9595 124.971 15.8717C124.59 15.747 124.186 15.6891 123.781 15.7012C123.301 15.7012 122.386 16.0037 122.417 16.5536C122.448 17.2026 123.663 17.2741 124.186 17.2521C124.639 17.2457 125.09 17.1846 125.525 17.0706C125.532 17.8379 125.408 18.6017 125.158 19.3364C125.004 19.6723 124.76 19.9704 124.447 20.2053C124.238 20.3497 123.994 20.4499 123.733 20.4985C123.473 20.5471 123.204 20.5428 122.946 20.4858C122.653 20.4418 122.778 20.8103 122.946 20.8653C123.433 20.9847 123.952 20.9507 124.413 20.769C124.875 20.5874 125.25 20.2694 125.475 19.8698C126.098 18.8964 125.868 17.769 126.135 16.7131C126.198 16.5591 125.967 16.4326 125.78 16.4546ZM123.407 16.7956C123.314 16.7956 123.071 16.7406 123.015 16.6581C122.959 16.5756 123.046 16.5426 123.102 16.4876C123.325 16.333 123.59 16.2316 123.87 16.1931C124.15 16.1546 124.437 16.1803 124.703 16.2676C124.854 16.2963 125.002 16.3368 125.145 16.3886C125.222 16.4189 125.297 16.4538 125.369 16.4931L125.463 16.5371H125.519C125.131 16.7047 124.705 16.7931 124.273 16.7956C123.986 16.8312 123.694 16.8312 123.407 16.7956Z" fill="#2BBBC5"/>
<path d="M147.929 6.32441C149.798 7.18234 152.489 9.0137 152.078 17.5655C151.754 24.2475 148.963 27.3272 147.717 27.9102C146.472 28.4931 144.827 28.6361 142.298 28.3996V32.1998C142.298 32.1998 145.213 39.0303 143.444 42.5005C141.103 41.3826 138.913 40.034 136.917 38.4803C132.631 34.8451 131.348 33.1402 131.348 33.1402L131.192 23.0266C131.192 23.0266 129.51 24.1265 126.882 22.3226C124.708 20.8377 123.83 18.1924 125.337 16.6691C125.732 16.2848 126.232 15.9966 126.789 15.8319C127.347 15.6672 127.943 15.6317 128.52 15.7286C129.151 15.8518 129.741 16.1013 130.246 16.458C130.75 16.8146 131.155 17.2688 131.429 17.7855C131.547 17.989 131.728 18.2034 131.983 18.2254C132.081 18.2291 132.177 18.2126 132.266 18.1773C132.355 18.1419 132.433 18.0887 132.494 18.022C132.613 17.8866 132.7 17.7313 132.749 17.5655C133.291 16.1466 133.036 14.6617 133.416 13.2154C133.712 12.0999 134.268 11.051 135.048 10.1356C136.901 8.03502 139.597 6.6431 142.579 6.24742C144.354 6.00347 146.164 6.02951 147.929 6.32441Z" fill="#B16668"/>
<path d="M151.431 10.4326C148.896 9.05272 145.899 8.48926 142.947 8.83769C139.72 9.2951 136.636 10.3401 133.891 11.9064C134.199 11.28 134.585 10.686 135.043 10.1356C136.901 8.03475 139.601 6.64311 142.586 6.2474C144.357 6.00161 146.163 6.02579 147.924 6.3189C149.108 6.83586 150.59 7.76528 151.431 10.4326Z" fill="#B16668"/>
<path d="M140.46 15.6352C140.495 15.8955 140.412 16.1575 140.229 16.3637C140.046 16.5699 139.777 16.7034 139.482 16.7351C139.342 16.7528 139.199 16.745 139.062 16.7124C138.925 16.6797 138.797 16.6229 138.686 16.5452C138.574 16.4675 138.482 16.3707 138.415 16.2606C138.347 16.1505 138.306 16.0294 138.293 15.9047C138.27 15.6498 138.359 15.3969 138.543 15.1991C138.726 15.0012 138.989 14.8737 139.277 14.8432C139.413 14.8262 139.553 14.8332 139.686 14.8638C139.82 14.8945 139.945 14.9481 140.055 15.0218C140.165 15.0954 140.258 15.1875 140.327 15.2927C140.397 15.398 140.442 15.5144 140.46 15.6352Z" fill="black"/>
<path d="M140.779 22.0367L144.591 22.8891C144.539 23.1153 144.436 23.3299 144.287 23.5199C144.139 23.7098 143.948 23.8711 143.727 23.994C143.505 24.1169 143.258 24.1989 143 24.2349C142.741 24.2709 142.478 24.2602 142.224 24.2035C141.714 24.0758 141.279 23.7793 141.01 23.3758C140.741 22.9722 140.658 22.4926 140.779 22.0367Z" fill="#9A4A4D"/>
<path d="M150.254 13.3914L148.043 12.4235C148.107 12.2935 148.201 12.1765 148.318 12.0795C148.435 11.9825 148.573 11.9075 148.724 11.8592C148.875 11.8108 149.035 11.7901 149.196 11.7982C149.356 11.8063 149.513 11.8432 149.656 11.9065C149.951 12.0401 150.178 12.2682 150.289 12.5442C150.4 12.8202 150.388 13.1232 150.254 13.3914Z" fill="black"/>
<path d="M139.521 12.649L137.291 13.5729C137.216 13.4476 137.171 13.3101 137.158 13.1689C137.145 13.0277 137.165 12.8856 137.216 12.7513C137.268 12.6171 137.349 12.4934 137.456 12.3879C137.563 12.2824 137.694 12.1972 137.839 12.1375C138.14 12.0158 138.483 12.001 138.796 12.0962C139.109 12.1914 139.369 12.3893 139.521 12.649Z" fill="black"/>
<path d="M149.27 15.1897C149.294 15.4441 149.206 15.697 149.024 15.895C148.841 16.093 148.579 16.2207 148.292 16.2512C148.152 16.268 148.01 16.2599 147.874 16.2272C147.739 16.1945 147.612 16.138 147.501 16.061C147.391 15.9839 147.299 15.888 147.231 15.779C147.164 15.6699 147.122 15.5499 147.108 15.4262C147.082 15.171 147.169 14.9167 147.352 14.7175C147.534 14.5183 147.798 14.3898 148.086 14.3593C148.226 14.3425 148.368 14.3508 148.505 14.3838C148.641 14.4168 148.768 14.4738 148.879 14.5514C148.989 14.629 149.081 14.7256 149.148 14.8353C149.215 14.945 149.257 15.0656 149.27 15.1897Z" fill="black"/>
<path d="M143.721 14.9972L144.263 20.4693L147.471 19.3969L143.721 14.9972Z" fill="#9A4A4D"/>
<path d="M142.274 28.3996C139.608 28.0532 133.958 26.7938 132.98 24.9459C133.383 26.0011 134.139 26.9235 135.148 27.5912C136.855 28.7296 142.274 29.747 142.274 29.747V28.3996Z" fill="#9A4A4D"/>
<path d="M151.431 10.4326C151.431 10.4326 150.048 8.48577 143.719 8.99722C140.241 9.32416 136.886 10.319 133.89 11.912C132.02 12.9177 130.444 14.2965 129.287 15.9377C129.037 15.8417 128.776 15.7716 128.508 15.7287C127.928 15.6298 127.329 15.6644 126.768 15.8291C126.207 15.9938 125.704 16.283 125.307 16.6691L125.276 16.7021C124.123 14.8378 123.27 12.9459 123.749 10.1851C124.422 6.29694 128.789 3.58566 133.641 1.79281C139.378 -0.363015 145.669 0.186939 148.185 2.28777C150.702 4.3886 151.362 10.2346 151.431 10.4326Z" fill="#2BBBC5"/>
<path d="M124.678 80.376C122.935 79.3573 121.366 78.1239 120.019 76.7133C121.146 76.8308 122.286 76.8308 123.413 76.7133C124.958 76.4273 125.282 75.8553 125.182 75.3604C125.126 74.9754 124.055 75.0964 122.354 74.6289C120.422 74.0389 118.427 73.6225 116.4 73.386C115.413 73.1807 114.546 72.662 113.964 71.9287C113.428 71.3402 110.264 66.4291 107.474 61.2155L120.374 47.1257C123.594 43.9414 127.443 38.2274 123.581 32.3759C114.718 34.0257 114.786 33.8332 97.0588 57.0029C94.0004 61.001 94.2496 62.8819 105.156 74.8049C107.356 77.2219 109.721 79.5176 112.239 81.6794C118.536 86.8654 123.089 87.2394 125.705 85.837C129.287 83.8957 128.122 82.3778 124.678 80.376Z" fill="#B16668"/>
<path d="M124.56 32.1613C119.708 32.3538 116.132 32.9642 112.725 36.6434C109.069 40.5756 100.604 51.3768 100.604 51.3768C100.604 51.3768 102.871 57.5528 111.99 59.6261L123.476 46.6086C123.476 46.6086 127.668 39.3437 124.56 32.1613Z" fill="#2BBBC5"/>
<path opacity="0.2" d="M124.56 32.1613C119.708 32.3538 116.132 32.9642 112.725 36.6434C109.069 40.5756 100.604 51.3768 100.604 51.3768C100.604 51.3768 102.871 57.5528 111.99 59.6261L123.476 46.6086C123.476 46.6086 127.668 39.3437 124.56 32.1613Z" fill="black"/>
<path d="M53.3488 36.9185C48.9885 37.023 47.7427 38.5684 45.1391 41.8681C42.5354 45.1678 33.5845 57.7178 33.5845 57.7178L20.9336 62.0075L22.6279 68.53C22.6279 68.53 33.3291 66.6491 38.823 65.6592C39.5379 65.5721 40.2203 65.34 40.8168 64.9813C41.4133 64.6226 41.9077 64.1469 42.2613 63.5914C42.9652 62.6509 49.9976 52.8837 49.9976 52.8837L53.3488 36.9185Z" fill="#E6E6E6"/>
<path d="M56.6889 37.023C52.5716 36.1156 50.7528 38.1229 49.3824 40.3667C47.1898 43.9194 45.8693 51.1788 45.6824 64.4438C45.5641 72.9736 42.2005 83.2852 41.6025 91.3916C40.6931 103.535 40.2695 112.977 40.2695 112.977C48.4147 112.047 56.6237 111.621 64.8363 111.701L56.6889 37.023Z" fill="#E0E0E0"/>
<path d="M80.4217 160.724C80.4217 160.724 82.9132 145.793 81.8606 137.043C80.9761 129.536 79.7241 126.396 79.5497 124.686C79.5497 124.686 78.117 107.087 78.5094 92.134C78.6901 85.0561 78.2852 77.2522 72.5795 68.9094L72.374 68.5794C71.8694 71.3292 67.0919 73.0891 62.8313 73.529C58.7285 73.9323 53.6208 73.2156 47.5082 71.3787C46.1441 78.4566 44.5993 91.947 43.0172 106.647C42.251 113.835 42.3943 119.885 42.2448 124.504C42.0642 130.774 42.712 155.335 42.712 155.335V156.374C42.6684 157.518 42.3569 158.316 41.4662 160.131C40.3297 162.471 38.7452 164.622 36.7821 166.488C36.1592 167.038 31.9671 170.068 31.4003 170.728C29.5752 172.488 33.1755 173.61 35.8913 173.373C38.7566 173.12 43.2165 172.274 44.5308 170.794C45.4091 169.799 46.169 166.241 47.066 165.229C50.0994 161.824 51.3452 160.356 51.4262 159.245C51.5383 157.227 50.8033 156.407 50.5479 155.263C50.8656 152.893 56.3221 140.486 56.6834 133.562C56.8578 130.262 56.0605 124.411 56.0605 124.411L60.7758 100.328C61.8409 107.093 63.8902 122.327 64.5941 127.194C65.6094 133.876 69.3467 145.177 71.7012 154.054C72.5857 157.392 73.0218 158.877 73.2398 161.054L73.2958 161.835C73.2958 162.82 73.408 173.34 73.7692 175.584C74.5167 180.242 79.1946 179.797 80.0853 176.074C80.839 172.906 80.4155 163.023 80.4404 161.808L80.4217 160.724Z" fill="#FFA8A7"/>
<path d="M80.5588 160.659C81.8731 160.719 80.8391 165.185 81.0696 168.088C81.3188 171.196 82.3839 173.495 82.6144 176.041C82.8822 178.956 82.5459 180.165 81.2752 182.514C80.291 184.345 75.5882 186.754 73.9375 184.048C72.2869 181.342 72.0253 178.301 72.3367 175.414C72.6544 172.433 72.9596 170.255 73.0966 167.984C73.2274 165.982 71.6578 161.23 73.3769 160.994L73.4268 161.775C73.9998 162.875 79.8051 163.788 80.5775 161.731L80.5588 160.659Z" fill="#37474F"/>
<path d="M51.7184 161.61C52.0673 163.067 51.5004 167.027 51.5004 167.027C51.5004 167.027 50.7405 168.374 48.1742 169.227L47.2461 163.672L51.7184 161.61Z" fill="#263238"/>
<path d="M48.1746 169.21L42.6558 167.428L41.4785 163.018L47.6389 166.004L48.1746 169.21Z" fill="black"/>
<path d="M42.8548 156.292V155.252C42.0886 155.555 40.22 160.895 37.8218 164.525C35.6417 167.824 31.4871 169.595 30.1105 171.025C28.2418 172.939 31.6116 175.573 37.1803 174.688C39.9397 174.253 44.1566 172.824 45.3401 171.223C46.5236 169.623 47.0219 166.631 47.9874 165.454C48.9529 164.277 51.1953 162.963 51.7247 161.604C52.1321 160.375 52.1771 159.075 51.8555 157.826C51.4694 156.567 51.1455 155.076 50.6596 155.175L50.5911 156.121C50.1987 156.776 48.8345 157.513 46.0378 157.562C44.6985 157.59 43.4216 157.375 42.8548 156.292Z" fill="#37474F"/>
<path d="M57.3679 136.196C57.6906 132.409 57.5339 128.602 56.9008 124.845L60.9246 101.197C60.9246 101.197 63.6654 123.745 64.1263 127.221C64.5872 130.697 71.9373 168.38 71.9373 168.38C75.6747 170.349 80.527 169.722 83.6663 168.253C83.6663 153.02 83.1306 137.753 82.5078 133.535C81.9577 130.652 81.2109 127.802 80.2716 124.999C80.2716 124.999 79.8729 102.776 79.8916 94.3394C79.9103 85.9031 79.194 80.2605 77.4001 76.4658C75.9924 73.7096 74.3255 71.0624 72.4169 68.552C72.4169 68.552 71.0217 72.7151 59.9592 72.7261C48.8967 72.7371 47.6758 70.2568 47.6758 70.2568C47.6758 70.2568 44.4368 80.2495 43.3592 95.3403C42.4871 107.5 42.2878 113.032 42.0262 118.438C41.8019 123.058 41.6649 128.393 41.5466 137.725C41.4531 144.765 40.3008 160.274 40.3008 160.274C40.3008 160.274 45.7012 162.77 54.6272 159.922C54.5899 159.9 56.8136 142.268 57.3679 136.196Z" fill="#455A64"/>
<path d="M60.9248 101.175L58.7385 86.8765C55.5288 86.5838 52.5351 85.3118 50.2734 83.2798C50.2734 83.2798 51.5192 86.7445 56.7017 88.6913L59.6355 101.247L57.5114 121.375L60.9248 101.175Z" fill="#37474F"/>
<path d="M66.1007 38.0184L71.308 38.5079C74.7713 39.2558 76.3285 40.6032 76.6836 43.309C77.3226 46.2209 77.2611 49.2188 76.5029 52.1083C75.4066 55.914 72.4915 65.2357 72.4915 65.2357C72.4915 65.2357 76.2725 73.6225 78.0602 77.8847C65.7706 84.9626 50.597 82.1689 45.5017 77.8847C45.9315 73.8315 47.5573 70.0643 47.9185 66.4511C47.9185 66.4511 47.6507 60.8086 47.1462 58.3613C43.2593 54.6161 43.7514 51.0304 45.5017 48.1376C48.7221 42.803 53.5993 38.1119 55.1565 38.1174L66.1007 38.0184Z" fill="#2BBBC5"/>
<path opacity="0.6" d="M66.1007 38.0184L71.308 38.5079C74.7713 39.2558 76.3285 40.6032 76.6836 43.309C77.3226 46.2209 77.2611 49.2188 76.5029 52.1083C75.4066 55.914 72.4915 65.2357 72.4915 65.2357C72.4915 65.2357 76.2725 73.6225 78.0602 77.8847C65.7706 84.9626 50.597 82.1689 45.5017 77.8847C45.9315 73.8315 47.5573 70.0643 47.9185 66.4511C47.9185 66.4511 47.6507 60.8086 47.1462 58.3613C43.2593 54.6161 43.7514 51.0304 45.5017 48.1376C48.7221 42.803 53.5993 38.1119 55.1565 38.1174L66.1007 38.0184Z" fill="white"/>
<path d="M56.6337 34.7847C55.089 34.7847 54.9145 35.0157 53.5816 36.5831C52.7905 37.518 47.7949 44.7939 47.7949 44.7939C47.7949 44.7939 51.7752 40.1798 54.7713 38.7829C55.3529 38.4822 55.983 38.2615 56.6399 38.1284L56.6337 34.7847Z" fill="#EBEBEB"/>
<path d="M66.3925 38.0185C66.3925 38.0185 62.1008 47.9837 61.1228 54.7481C60.1449 61.5126 63.5023 81.9434 64.0193 94.0535C64.3992 102.853 65.346 115.568 65.346 115.568C68.3916 115.831 71.4629 115.746 74.4838 115.315C79.5292 114.473 81.0927 113.742 83.9767 112.081C83.9767 112.081 81.4851 89.9343 80.2393 81.3275C79.087 73.2266 74.1537 65.2358 74.1537 65.2358L80.0836 43.562C80.0836 43.562 79.7908 39.9103 75.8915 38.8874C72.1978 37.914 66.3925 38.0185 66.3925 38.0185Z" fill="#FAFAFA"/>
<path d="M73.9876 58.2733C73.9876 58.2733 73.1841 55.694 72.0753 51.2889C70.9666 46.8837 71.141 44.3319 71.5209 42.4071L77.9678 50.7334L74.1682 65.2303C76.7528 69.5994 78.6614 74.2551 79.8427 79.0726C75.9621 69.3769 71.7078 66.4676 71.7078 66.4676L73.9876 58.2733Z" fill="#F5F5F5"/>
<path d="M68.0133 50.2824C68.0133 49.8645 68.0569 48.9571 68.1379 47.8186C68.5428 42.2311 68.7296 37.188 66.5931 36.781L66.4062 37.551C67.9635 37.848 67.4465 45.0524 67.2534 47.7691C67.1662 48.935 67.0977 49.8535 67.1226 50.3154L68.0133 50.2824Z" fill="#2BBBC5"/>
<path d="M79.7287 95.5383C80.5572 94.1469 80.5447 93.146 81.8341 91.8866C82.3868 91.3693 82.7738 90.7316 82.9553 90.0387C83.2246 88.9206 83.3272 87.7761 83.2605 86.6345L90.648 86.7335C90.7041 88.9003 91.0342 92.0131 90.5733 94.3229C89.396 100.169 88.0817 102.66 85.3036 103.342C80.8624 104.442 79.6665 102.792 81.0866 99.8334C81.7043 98.6081 82.1237 97.3122 82.3324 95.9837C81.8711 96.5101 81.3304 96.9782 80.7254 97.3751C80.4172 97.5973 80.0255 97.7087 79.6284 97.6873C79.2313 97.6659 78.8579 97.5132 78.5826 97.2596C78.3646 97.0286 79.0872 96.6217 79.7287 95.5383Z" fill="#FFA8A7"/>
<path d="M72.5285 38.3045C72.5285 38.3045 77.2998 38.0405 80.0966 40.0588C82.8933 42.0772 84.625 47.7197 86.6743 53.3623C88.7236 59.0048 90.5611 64.4933 91.2338 68.4475C91.8007 71.7473 91.0657 89.2523 91.0657 89.2523C88.1352 89.496 85.1847 89.0361 82.5258 87.9215L80.5575 69.256L72.5596 50.09C71.0768 46.2721 71.0659 42.1284 72.5285 38.3045Z" fill="#F0F0F0"/>
<path d="M13.2677 51.8003L36.9375 59.1752L43.453 84.0442L42.9235 84.5392L20.4185 77.1203L12.7383 52.2953L13.2677 51.8003Z" fill="#2BBBC5"/>
<path opacity="0.35" d="M36.4082 59.6702L42.9236 84.5391L43.4531 84.0442L36.9377 59.1752L36.4082 59.6702Z" fill="black"/>
<path opacity="0.25" d="M12.7383 52.2953L36.4081 59.6702L42.9235 84.5392L20.4185 77.1203L12.7383 52.2953Z" fill="black"/>
<g opacity="0.2">
<path d="M23.9374 72.0662C23.7194 72.5502 21.9068 73.6281 19.2782 73.4356L18.8359 72.0002L23.9374 72.0662Z" fill="black"/>
</g>
<g opacity="0.1">
<path d="M19.8628 57.3934L19.6697 56.5575C19.5638 56.0955 20.9529 56.3375 22.7842 57.1074L27.0572 58.2514C28.8823 59.0103 30.6014 59.5767 30.7073 60.0332L30.9067 60.8691L19.8628 57.3934Z" fill="black"/>
</g>
<path d="M18.461 53.6207C18.3925 53.3292 18.9281 53.3897 19.7068 53.5657L21.0709 53.9781C21.0709 53.9781 20.5103 52.7682 23.7368 53.5382C27.2873 54.3906 27.3621 55.9525 27.3621 55.9525C27.9183 56.1651 28.4882 56.3487 29.0688 56.5024C30.246 56.8434 30.3768 57.0524 30.4765 57.3384L30.6509 57.8883L18.5669 54.1321C18.5669 54.1321 18.5295 53.9066 18.461 53.6207Z" fill="#37474F"/>
<path d="M19.7261 55.232C20.8473 55.6775 21.3083 55.8975 21.4765 56.6069C21.6633 57.4153 21.7069 57.7563 21.7069 57.7563L27.9919 59.9561C27.9919 59.9561 27.6493 58.7627 27.5683 58.3613C27.4873 57.9598 28.3158 57.9598 29.3996 58.4053L29.1442 57.4099L19.3711 54.2036L19.7261 55.232Z" fill="#37474F"/>
<path d="M19.5152 57.4319L19.3221 56.6015C19.2162 56.1395 20.6052 56.3815 22.4365 57.1514L26.7095 58.2898C28.5284 59.0488 30.2538 59.6152 30.3597 60.0772L30.5528 60.9131L19.5152 57.4319Z" fill="#37474F"/>
<path d="M15.3655 60.8031C15.3655 60.8031 16.2064 63.5529 16.4245 64.2239C16.6425 64.8948 20.5231 66.4897 22.4665 66.7042C26.2038 67.1166 26.5962 67.8041 25.7055 70.1524C24.8833 72.2972 22.4665 73.1056 19.1153 72.7592C18.0658 72.5771 17.0893 72.1537 16.2844 71.5319C15.4795 70.91 14.8746 70.1117 14.5309 69.2175C13.4408 66.4677 14.0263 63.5474 13.5965 61.9415C13.1667 60.3357 14.425 59.8517 15.3655 60.8031Z" fill="#FFA8A7"/>
<path d="M75.1524 13.617L71.8386 16.0203C71.6578 15.8376 71.5211 15.6243 71.4369 15.3934C71.3527 15.1624 71.3228 14.9188 71.3491 14.6773C71.3753 14.4358 71.4571 14.2016 71.5895 13.989C71.7219 13.7764 71.902 13.5899 72.1189 13.441C72.5542 13.1223 73.1112 12.963 73.6754 12.9957C74.2396 13.0285 74.7681 13.2508 75.1524 13.617Z" fill="#455A64"/>
<path d="M66.4557 35.1477C66.4557 33.3053 71.3205 30.5446 73.8307 26.6619C76.341 22.7792 75.0765 16.4162 71.6506 15.4373C71.6506 15.4373 71.5821 9.64076 62.7246 8.10088C53.8671 6.56101 51.089 4.83415 49.5194 4.58667C47.9497 4.33919 47.6507 9.26679 49.7125 10.5592C48.2297 10.0446 46.8753 9.27855 45.726 8.30437C44.4366 7.20445 43.9258 12.935 46.7101 14.9478C46.7101 14.9478 44.4055 16.1412 44.6858 19.155C44.7405 20.2526 45.2006 21.3042 45.9958 22.1493C46.7909 22.9943 47.8775 23.5864 49.0896 23.8351L66.4557 35.1477Z" fill="#455A64"/>
<path d="M51.3512 13.4355C49.2147 14.2549 47.1841 17.1367 47.2152 25.2045C47.2152 32.0404 49.6133 33.7728 50.8155 34.2788C52.0177 34.7847 54.3535 34.5317 56.6333 34.2183V38.1505C56.6333 38.1505 54.9328 39.6298 55.5245 40.5648C56.1163 41.4997 58.34 42.2806 61.7534 41.3292C65.6465 40.2293 66.5372 37.958 66.5372 37.958L66.612 29.3567C66.612 29.3567 67.9263 30.5721 70.2247 28.8067C72.1308 27.3383 72.816 24.814 71.3833 23.4281C69.9507 22.0423 68.1194 21.9323 66.4687 23.4831L65.2728 22.9332C63.1612 22.7132 60.028 22.3832 57.7607 21.3823C51.9056 18.704 51.2827 15.8333 51.3512 13.4355Z" fill="#FFA8A7"/>
<path d="M66.4572 22.3282V26.1284C66.1803 26.1368 65.9044 26.0949 65.6466 26.0054C65.3888 25.9159 65.1545 25.7805 64.9583 25.6078C64.7622 25.4351 64.6082 25.2287 64.506 25.0014C64.4038 24.774 64.3556 24.5305 64.3643 24.2861C64.3649 23.7857 64.5818 23.3044 64.9708 22.9406C65.3598 22.5767 65.8915 22.3576 66.4572 22.3282Z" fill="#455A64"/>
<path d="M51.1454 22.8617C51.1529 22.9828 51.1332 23.104 51.0875 23.2183C51.0417 23.3326 50.9707 23.4378 50.8786 23.5278C50.7865 23.6178 50.6752 23.6908 50.551 23.7426C50.4268 23.7944 50.2922 23.824 50.155 23.8296C49.9431 23.8426 49.7316 23.7995 49.5478 23.7057C49.3639 23.6118 49.216 23.4716 49.123 23.303C49.0301 23.1343 48.9964 22.9451 49.0262 22.7594C49.056 22.5737 49.148 22.4002 49.2904 22.261C49.4328 22.1219 49.619 22.0235 49.8252 21.9785C50.0314 21.9335 50.2481 21.944 50.4475 22.0085C50.6469 22.0731 50.8199 22.1888 50.9443 22.3408C51.0686 22.4929 51.1386 22.6742 51.1454 22.8617Z" fill="#263238"/>
<path d="M59.3423 23.2632C59.3515 23.3934 59.3314 23.5239 59.283 23.6472C59.2346 23.7705 59.159 23.884 59.0604 23.9812C58.9619 24.0785 58.8425 24.1574 58.7091 24.2135C58.5757 24.2696 58.431 24.3018 58.2834 24.3081C58.0554 24.3233 57.8275 24.278 57.6289 24.178C57.4303 24.0779 57.2701 23.9277 57.169 23.7467C57.0679 23.5656 57.0304 23.362 57.0613 23.162C57.0923 22.962 57.1903 22.7748 57.3428 22.6243C57.4952 22.4739 57.6952 22.3671 57.9169 22.3178C58.1386 22.2685 58.3719 22.2788 58.5869 22.3475C58.8019 22.4162 58.9887 22.5401 59.1233 22.7033C59.2579 22.8665 59.3342 23.0614 59.3423 23.2632Z" fill="#263238"/>
<path d="M57.6673 28.8617L54.3535 29.7746C54.4046 29.9727 54.5011 30.1595 54.6369 30.3235C54.7728 30.4875 54.9452 30.6252 55.1435 30.7282C55.3419 30.8312 55.562 30.8973 55.7903 30.9225C56.0186 30.9477 56.2504 30.9313 56.4713 30.8745C56.9196 30.7317 57.291 30.4459 57.5124 30.0733C57.7337 29.7007 57.789 29.2685 57.6673 28.8617Z" fill="#F28F8F"/>
<path d="M48.4229 21.1733L51.0764 20.2439C51.015 20.0832 50.9163 19.9356 50.7865 19.8107C50.6567 19.6857 50.4988 19.5861 50.3228 19.5182C50.1468 19.4504 49.9566 19.4158 49.7646 19.4167C49.5726 19.4176 49.3829 19.4539 49.2077 19.5234C48.8651 19.6601 48.5938 19.9062 48.4482 20.2122C48.3026 20.5183 48.2936 20.8616 48.4229 21.1733Z" fill="#263238"/>
<path d="M53.6553 22.1192L53.7861 27.7233L50.3789 27.0523L53.6553 22.1192Z" fill="#F28F8F"/>
<path d="M56.6332 34.1963C59.0313 33.9488 63.977 32.7334 64.7806 30.9625C64.4588 31.8515 63.8426 32.635 63.0116 33.2118C61.5166 34.3447 56.627 35.5217 56.627 35.5217L56.6332 34.1963Z" fill="#F28F8F"/>
<path d="M66.5681 34.8122C67.191 34.7022 67.7578 34.9387 68.2686 35.7086C68.7793 36.4785 69.9068 38.0954 69.9068 38.0954C69.9068 38.0954 70.4861 43.463 69.9068 44.7939C69.4022 45.9543 63.8461 50.2934 63.8461 50.2934C63.8461 50.2934 65.2974 55.1165 65.3472 56.6949C65.3971 58.2733 61.9026 64.2843 61.5102 67.3585C61.5102 67.3585 60.4139 57.6958 60.9247 54.2256C61.8217 48.1761 65.0295 40.4052 66.5307 37.9359L66.5681 34.8122Z" fill="#EBEBEB"/>
<path d="M66.7112 68.0185C65.9026 68.4899 64.9518 68.7352 63.983 68.7224L64.0639 68.1725C64.8052 68.1807 65.5336 68.0013 66.1631 67.6555C65.5607 67.2346 65.0336 66.7358 64.5996 66.1761C63.7089 64.9552 62.3074 56.6234 63.167 54.7701C63.8771 53.2302 65.9637 49.892 67.5272 49.892H67.5646C69.1529 49.9525 70.9344 53.4832 71.5012 55.0835C72.1802 56.9919 69.9814 65.1917 68.9785 66.3411C68.4894 66.8644 67.9165 67.322 67.278 67.6995C67.8746 68.0875 68.5824 68.3199 69.3211 68.3705V68.9204H69.2464C68.3226 68.8343 67.4445 68.5219 66.7112 68.0185ZM63.74 54.9791C62.9552 56.6839 64.3006 64.7463 65.1228 65.8737C65.5707 66.4409 66.1173 66.942 66.7424 67.3586C67.4077 66.9932 68.001 66.5343 68.4989 66.0002C69.4332 64.9388 71.5511 57.0029 70.9282 55.2485C70.162 53.1037 68.4927 50.4804 67.5583 50.4474C66.5991 50.4419 64.7055 52.9112 63.74 54.9791Z" fill="#455A64"/>
<path d="M63.1171 68.431C63.1121 68.5372 63.1308 68.6432 63.1723 68.743C63.2137 68.8428 63.277 68.9343 63.3586 69.0125C63.4402 69.0906 63.5384 69.1538 63.6477 69.1984C63.7569 69.243 63.8751 69.2682 63.9954 69.2724C64.2384 69.2799 64.4751 69.2029 64.6545 69.0579C64.8339 68.9128 64.9417 68.7114 64.9546 68.497C64.9645 68.2782 64.8756 68.0649 64.7074 67.904C64.5392 67.7431 64.3054 67.6478 64.0576 67.6391C63.8098 67.6303 63.5683 67.7088 63.386 67.8573C63.2038 68.0059 63.0958 68.2122 63.0859 68.431H63.1171Z" fill="#263238"/>
<path d="M68.4384 68.6125C68.4277 68.8269 68.5138 69.0363 68.678 69.1946C68.8421 69.3529 69.0707 69.4472 69.3136 69.4566C69.5564 69.4661 69.7936 69.39 69.9729 69.2451C70.1522 69.1002 70.259 68.8984 70.2697 68.684C70.275 68.5778 70.2566 68.4717 70.2155 68.3719C70.1744 68.272 70.1114 68.1802 70.0301 68.1018C69.9489 68.0235 69.8509 67.96 69.7419 67.915C69.6328 67.87 69.5148 67.8445 69.3945 67.8398C69.2743 67.8351 69.1542 67.8513 69.041 67.8876C68.9279 67.9239 68.824 67.9795 68.7352 68.0513C68.6464 68.123 68.5745 68.2095 68.5236 68.3058C68.4727 68.4021 68.4437 68.5063 68.4384 68.6125Z" fill="#263238"/>
<path d="M63.0113 58.3833L63.5345 58.3503C63.5616 58.3489 63.588 58.3428 63.6123 58.3324C63.6367 58.3219 63.6584 58.3073 63.6764 58.2895C63.6943 58.2716 63.7081 58.2507 63.7169 58.2281C63.7257 58.2056 63.7293 58.1817 63.7276 58.1578C63.578 57.1161 63.6328 56.0594 63.8896 55.0341C64.8115 53.0432 66.7175 50.5519 67.5522 50.5849C68.3868 50.6179 70.0437 53.2412 70.7787 55.2925C70.9469 55.76 70.8909 56.8929 70.6417 58.4163C70.6327 58.4637 70.6453 58.5123 70.6769 58.5515C70.7084 58.5907 70.7562 58.6172 70.8099 58.6253L71.3331 58.6968C71.3601 58.6998 71.3876 58.6981 71.4139 58.6918C71.4401 58.6854 71.4647 58.6744 71.4862 58.6596C71.5076 58.6448 71.5255 58.6263 71.5388 58.6053C71.5521 58.5843 71.5605 58.5612 71.5636 58.5373C71.8501 56.8269 71.8875 55.65 71.6695 55.0451C71.2833 53.9452 69.4458 49.826 67.5958 49.7545C65.7458 49.683 63.5159 53.6537 63.0238 54.7041C62.7497 55.2925 62.6687 56.464 62.7933 58.1908C62.7915 58.2165 62.7959 58.2423 62.8062 58.2663C62.8165 58.2904 62.8325 58.3123 62.8531 58.3305C62.8737 58.3487 62.8985 58.3628 62.9258 58.3719C62.9531 58.381 62.9822 58.3849 63.0113 58.3833Z" fill="#2BBBC5"/>
<path d="M8.52148 20.9202V27.7507L15.2238 24.3355V31.1714L21.9261 27.7507V20.9202L28.6283 17.505V10.6691L21.9074 14.1008L21.9261 7.25385L15.2238 10.6691V17.505L8.52148 20.9202Z" fill="#2BBBC5"/>
<path d="M8.52191 27.7507L5.65039 26.2878V19.4574L8.52191 20.9203V27.7507Z" fill="#2BBBC5"/>
<path d="M15.2242 17.5051L12.3527 16.0422L5.65039 19.4574L8.52191 20.9203L15.2242 17.5051Z" fill="#2BBBC5"/>
<path d="M15.2231 10.6692L12.3516 9.20627V16.0422L15.2231 17.5051V10.6692Z" fill="#2BBBC5"/>
<path d="M21.9254 7.25384L19.0539 5.79095L12.3516 9.20618L15.2231 10.6691L21.9254 7.25384Z" fill="#2BBBC5"/>
<path d="M15.2231 31.1715L12.3516 29.7031V25.7984L15.2231 24.3355V31.1715Z" fill="#2BBBC5"/>
<g opacity="0.2">
<path d="M8.52191 27.7508L5.65039 26.2879V19.4574L8.52191 20.9203V27.7508Z" fill="black"/>
<path d="M15.2231 10.6692L12.3516 9.20627V16.0422L15.2231 17.5051V10.6692Z" fill="black"/>
<path d="M15.2231 31.1715L12.3516 29.7031V25.7984L15.2231 24.3355V31.1715Z" fill="black"/>
</g>
<path d="M28.6272 10.6692L25.7557 9.20627L21.9125 11.1531L21.9062 14.1009L28.6272 10.6692Z" fill="#2BBBC5"/>
<g opacity="0.5">
<path d="M15.2242 17.505L12.3527 16.0421L5.65039 19.4574L8.52191 20.9203L15.2242 17.505Z" fill="white"/>
<path d="M21.9254 7.25384L19.0539 5.79095L12.3516 9.20618L15.2231 10.6691L21.9254 7.25384Z" fill="white"/>
<path d="M28.6272 10.6692L25.7557 9.20627L21.9125 11.1531L21.9062 14.1009L28.6272 10.6692Z" fill="white"/>
</g>
<path d="M253.098 10.5591C253.098 11.2301 253.603 11.9065 254.612 12.418C255.743 12.9252 256.994 13.1895 258.262 13.1895C259.531 13.1895 260.781 12.9252 261.912 12.418C262.921 11.9065 263.426 11.2301 263.426 10.5591V4.56463C263.426 3.35401 262.881 2.19298 261.912 1.33695C260.942 0.480916 259.627 0 258.256 0C256.885 0 255.57 0.480916 254.6 1.33695C253.631 2.19298 253.086 3.35401 253.086 4.56463L253.098 10.5591Z" fill="#F5F5F5"/>
<path d="M253.1 18.4729C253.1 19.6836 253.644 20.8446 254.614 21.7006C255.583 22.5567 256.898 23.0376 258.27 23.0376C259.641 23.0376 260.956 22.5567 261.925 21.7006C262.895 20.8446 263.44 19.6836 263.44 18.4729V10.5591C263.44 11.23 262.935 11.9065 261.926 12.4179C260.795 12.9251 259.544 13.1895 258.276 13.1895C257.007 13.1895 255.757 12.9251 254.626 12.4179C253.61 11.9065 253.1 11.2355 253.1 10.5591V18.4729Z" fill="#2BBBC5"/>
<path opacity="0.4" d="M260.243 20.9312C259.983 20.932 259.725 20.8874 259.485 20.8001C259.245 20.7128 259.026 20.5845 258.842 20.4226C258.658 20.2606 258.512 20.0682 258.413 19.8563C258.313 19.6444 258.262 19.4173 258.262 19.1879V9.89914C259.535 9.87489 260.794 10.14 261.918 10.6691C262.03 10.7241 262.124 10.7791 262.223 10.8396V19.1879C262.222 19.6508 262.012 20.0942 261.641 20.421C261.27 20.7478 260.767 20.9312 260.243 20.9312Z" fill="white"/>
<path d="M253.098 10.5591C253.098 11.2301 253.603 11.9065 254.612 12.418C255.743 12.9252 256.994 13.1895 258.262 13.1895C259.531 13.1895 260.781 12.9252 261.912 12.418C262.921 11.9065 263.426 11.2301 263.426 10.5591V4.56463C263.426 3.35401 262.881 2.19298 261.912 1.33695C260.942 0.480916 259.627 0 258.256 0C256.885 0 255.57 0.480916 254.6 1.33695C253.631 2.19298 253.086 3.35401 253.086 4.56463L253.098 10.5591Z" fill="#F5F5F5"/>
<path opacity="0.1" d="M261.92 12.4179C260.789 12.9251 259.538 13.1895 258.27 13.1895C257.001 13.1895 255.75 12.9251 254.619 12.4179C253.61 11.9065 253.1 11.2355 253.1 10.5591V11.2355C253.1 11.912 253.604 12.5829 254.613 13.0999C255.744 13.6071 256.995 13.8714 258.263 13.8714C259.532 13.8714 260.782 13.6071 261.913 13.0999C262.923 12.5829 263.427 11.912 263.427 11.2355V10.5756C263.433 11.2355 262.929 11.9065 261.92 12.4179Z" fill="black"/>
<path d="M261.303 0.880183C260.533 0.385027 259.623 0.0876402 258.673 0.0209256C257.723 -0.045789 256.771 0.12077 255.922 0.502174C255.073 0.883579 254.36 1.46496 253.862 2.18198C253.364 2.89901 253.1 3.72373 253.1 4.56488V10.5594C253.1 11.2303 253.604 11.9068 254.613 12.4182C255.078 12.658 255.576 12.8429 256.096 12.9682V3.74545C256.102 1.11667 259.827 0.154241 261.303 0.880183Z" fill="#E0E0E0"/>
<path d="M260.243 2.15585C259.717 2.15585 259.213 2.34011 258.842 2.66808C258.47 2.99606 258.262 3.44088 258.262 3.90471V13.1935C259.536 13.2158 260.795 12.9488 261.918 12.418C262.03 12.363 262.124 12.308 262.223 12.253V3.90471C262.223 3.44088 262.015 2.99606 261.643 2.66808C261.272 2.34011 260.768 2.15585 260.243 2.15585Z" fill="white"/>
<path opacity="0.1" d="M258.911 22.9991L259.204 22.9551L259.409 22.9221L259.64 22.8671L259.877 22.8066L259.989 22.7681C260.328 22.6638 260.654 22.5273 260.96 22.3611C261.071 22.3052 261.177 22.2427 261.278 22.1741C259.802 22.8946 256.077 21.9377 256.077 19.3089V12.9459C255.558 12.8206 255.059 12.6357 254.595 12.3959C253.61 11.9065 253.1 11.2355 253.1 10.5591V18.4729C253.101 19.6831 253.646 20.8433 254.616 21.699C255.585 22.5547 256.899 23.0361 258.27 23.0376C258.432 23.0376 258.593 23.0376 258.749 23.0376L258.911 22.9991Z" fill="black"/>
</svg>
