<svg width="54" height="54" viewBox="0 0 54 54" fill="none" xmlns="http://www.w3.org/2000/svg">
<rect width="54" height="54" rx="8" fill="#EFF9FF"/>
<path d="M22.7333 25.9333C21.3188 25.9333 19.9622 25.3714 18.962 24.3712C17.9618 23.371 17.3999 22.0145 17.3999 20.6V16.3333C17.3999 16.0504 17.5123 15.7791 17.7124 15.5791C17.9124 15.379 18.1837 15.2666 18.4666 15.2666H19.5333C19.8162 15.2666 20.0875 15.1543 20.2875 14.9542C20.4876 14.7542 20.5999 14.4829 20.5999 14.2C20.5999 13.9171 20.4876 13.6458 20.2875 13.4457C20.0875 13.2457 19.8162 13.1333 19.5333 13.1333H18.4666C17.6179 13.1333 16.804 13.4704 16.2039 14.0706C15.6037 14.6707 15.2666 15.4846 15.2666 16.3333V20.6C15.268 21.805 15.5618 22.9917 16.1229 24.0582C16.684 25.1246 17.4956 26.039 18.4879 26.7226C19.4423 27.5624 20.2162 28.5873 20.7626 29.7351C21.309 30.8829 21.6165 32.1297 21.6666 33.4C21.6666 35.3802 22.4533 37.2794 23.8535 38.6797C25.2538 40.08 27.153 40.8666 29.1333 40.8666C31.1136 40.8666 33.0127 40.08 34.413 38.6797C35.8133 37.2794 36.5999 35.3802 36.5999 33.4V32.184C37.6054 31.9243 38.4817 31.3069 39.0646 30.4474C39.6474 29.5879 39.8968 28.5454 39.7659 27.5152C39.6351 26.485 39.133 25.5379 38.3538 24.8514C37.5746 24.1649 36.5718 23.7861 35.5333 23.7861C34.4948 23.7861 33.492 24.1649 32.7128 24.8514C31.9335 25.5379 31.4315 26.485 31.3006 27.5152C31.1698 28.5454 31.4191 29.5879 32.002 30.4474C32.5848 31.3069 33.4611 31.9243 34.4666 32.184V33.4C34.4666 34.8145 33.9047 36.171 32.9045 37.1712C31.9043 38.1714 30.5478 38.7333 29.1333 38.7333C27.7188 38.7333 26.3622 38.1714 25.362 37.1712C24.3618 36.171 23.7999 34.8145 23.7999 33.4C23.8527 32.1281 24.1636 30.8803 24.7137 29.7324C25.2638 28.5845 26.0417 27.5605 26.9999 26.7226C27.9883 26.0366 28.7958 25.1212 29.3531 24.0549C29.9104 22.9886 30.201 21.8031 30.1999 20.6V16.3333C30.1999 15.4846 29.8628 14.6707 29.2627 14.0706C28.6626 13.4704 27.8486 13.1333 26.9999 13.1333H25.9333C25.6504 13.1333 25.3791 13.2457 25.179 13.4457C24.979 13.6458 24.8666 13.9171 24.8666 14.2C24.8666 14.4829 24.979 14.7542 25.179 14.9542C25.3791 15.1543 25.6504 15.2666 25.9333 15.2666H26.9999C27.2828 15.2666 27.5541 15.379 27.7542 15.5791C27.9542 15.7791 28.0666 16.0504 28.0666 16.3333V20.6C28.0666 21.3004 27.9287 21.9939 27.6606 22.6409C27.3926 23.288 26.9998 23.876 26.5045 24.3712C26.0093 24.8664 25.4213 25.2593 24.7742 25.5273C24.1272 25.7954 23.4337 25.9333 22.7333 25.9333ZM35.5333 30.2C34.9675 30.2 34.4249 29.9752 34.0248 29.5751C33.6247 29.175 33.3999 28.6324 33.3999 28.0666C33.3999 27.5008 33.6247 26.9582 34.0248 26.5581C34.4249 26.1581 34.9675 25.9333 35.5333 25.9333C36.0991 25.9333 36.6417 26.1581 37.0418 26.5581C37.4418 26.9582 37.6666 27.5008 37.6666 28.0666C37.6666 28.6324 37.4418 29.175 37.0418 29.5751C36.6417 29.9752 36.0991 30.2 35.5333 30.2Z" fill="#2BBBC5"/>
</svg>
