<svg width="54" height="54" viewBox="0 0 54 54" fill="none" xmlns="http://www.w3.org/2000/svg">
<rect width="54" height="54" rx="8" fill="#EFF9FF"/>
<path d="M40.7098 16.34H42.2398V23.95H40.7098V16.34ZM39.1898 23.95H40.7098V25.48H39.1898V23.95ZM39.1898 14.81H40.7098V16.34H39.1898V14.81ZM37.6698 25.48H39.1898V27H37.6698V25.48ZM37.6698 13.29H39.1898V14.81H37.6698V13.29ZM36.1398 27H37.6698V28.53H36.1398V27ZM34.6198 28.53H36.1398V30.05H34.6198V28.53ZM33.0998 30.05H34.6198V31.57H33.0998V30.05ZM30.0498 11.76H37.6698V13.29H30.0498V11.76ZM13.2898 39.19H14.8098V40.72H16.3298V42.24H23.9498V40.72H25.4798V39.19H26.9998V37.67H28.5198V36.15H30.0498V34.62H31.5698V33.1H33.0998V31.57H31.5698V30.05H30.0498V28.53H28.5198V27H26.9998V25.48H25.4798V23.95H23.9498V22.43H22.4298V20.91H20.8998V22.43H19.3798V23.95H17.8598V25.48H16.3298V27H14.8098V28.53H13.2898V30.05H11.7598V37.67H13.2898V39.19ZM19.3798 37.67H22.4298V36.15H23.9498V34.62H25.4798V33.1H26.9998V34.62H25.4798V36.15H23.9498V37.67H22.4298V39.19H19.3798V37.67ZM28.5198 13.29H30.0498V14.81H28.5198V13.29ZM26.9998 14.81H28.5198V16.34H26.9998V14.81ZM25.4798 16.34H26.9998V17.86H25.4798V16.34ZM23.9498 17.86H25.4798V19.38H23.9498V17.86ZM22.4298 19.38H23.9498V20.91H22.4298V19.38Z" fill="#2BBBC5"/>
</svg>
