<svg width="54" height="54" viewBox="0 0 54 54" fill="none" xmlns="http://www.w3.org/2000/svg">
<rect width="54" height="54" rx="8" fill="#EFF9FF"/>
<path fill-rule="evenodd" clip-rule="evenodd" d="M27 13.6666L26.54 14.1066L26.5373 14.1093L26.5313 14.1146L26.51 14.136L26.4287 14.2153C26.3576 14.2851 26.2562 14.3862 26.1247 14.5186C24.5659 16.1097 23.1197 17.8074 21.7967 19.5993C19.454 22.7866 17 27.0546 17 31.0533C17 36.23 21.5307 40.3333 27 40.3333C32.4693 40.3333 37 36.23 37 31.0533C37 27.0533 34.546 22.786 32.2033 19.6C30.8803 17.8078 29.4342 16.1099 27.8753 14.5186C27.7481 14.3898 27.6197 14.2623 27.49 14.136L27.4687 14.1146L27.462 14.1093L27.46 14.1066L27 13.6666ZM21.31 31.9326C21.2829 31.8494 21.2396 31.7723 21.1827 31.7057C21.1257 31.6392 21.0562 31.5845 20.9782 31.5449C20.9001 31.5052 20.815 31.4813 20.7277 31.4745C20.6404 31.4677 20.5526 31.4782 20.4693 31.5053C20.3861 31.5324 20.309 31.5757 20.2424 31.6326C20.1759 31.6896 20.1212 31.7591 20.0816 31.8371C20.0419 31.9152 20.018 32.0003 20.0112 32.0876C20.0044 32.1749 20.0149 32.2627 20.042 32.346C20.5414 33.889 21.5162 35.2345 22.8267 36.19C24.1356 37.1441 25.7135 37.6583 27.3333 37.6586C27.7013 37.6586 28 37.3593 28 36.99C28 36.6206 27.7013 36.3213 27.3333 36.3213C25.9954 36.3202 24.6923 35.8955 23.6107 35.108C22.528 34.3184 21.7228 33.2074 21.31 31.9326Z" fill="#2BBBC5"/>
</svg>
