<svg width="32" height="32" viewBox="0 0 32 32" fill="none" xmlns="http://www.w3.org/2000/svg">
<path d="M5.33398 24C5.33398 22.5855 5.89589 21.2289 6.89608 20.2287C7.89628 19.2285 9.25283 18.6666 10.6673 18.6666H21.334C22.7485 18.6666 24.105 19.2285 25.1052 20.2287C26.1054 21.2289 26.6673 22.5855 26.6673 24C26.6673 24.7072 26.3864 25.3855 25.8863 25.8856C25.3862 26.3857 24.7079 26.6666 24.0006 26.6666H8.00065C7.29341 26.6666 6.61513 26.3857 6.11503 25.8856C5.61494 25.3855 5.33398 24.7072 5.33398 24Z" stroke="#6B7280" stroke-width="2" stroke-linejoin="round"/>
<path d="M16 13.3333C18.2091 13.3333 20 11.5425 20 9.33331C20 7.12417 18.2091 5.33331 16 5.33331C13.7909 5.33331 12 7.12417 12 9.33331C12 11.5425 13.7909 13.3333 16 13.3333Z" stroke="#6B7280" stroke-width="2"/>
</svg>
