<svg width="23" height="23" viewBox="0 0 23 23" fill="none" xmlns="http://www.w3.org/2000/svg">
<path d="M16.6686 14.6686H15.6153L15.2419 14.3086C16.0752 13.3405 16.6842 12.2003 17.0253 10.9694C17.3665 9.73853 17.4313 8.44746 17.2153 7.18859C16.5886 3.48192 13.4953 0.52192 9.76192 0.0685862C8.44941 -0.0974595 7.1163 0.0389484 5.86462 0.467372C4.61294 0.895795 3.47585 1.60488 2.54036 2.54036C1.60488 3.47585 0.895795 4.61294 0.467372 5.86462C0.0389484 7.1163 -0.0974595 8.44941 0.0685862 9.76192C0.52192 13.4953 3.48192 16.5886 7.18859 17.2153C8.44746 17.4313 9.73853 17.3665 10.9694 17.0253C12.2003 16.6842 13.3405 16.0752 14.3086 15.2419L14.6686 15.6153V16.6686L20.3353 22.3353C20.8819 22.8819 21.7753 22.8819 22.3219 22.3353C22.8686 21.7886 22.8686 20.8953 22.3219 20.3486L16.6686 14.6686ZM8.66859 14.6686C5.34859 14.6686 2.66859 11.9886 2.66859 8.66859C2.66859 5.34859 5.34859 2.66859 8.66859 2.66859C11.9886 2.66859 14.6686 5.34859 14.6686 8.66859C14.6686 11.9886 11.9886 14.6686 8.66859 14.6686Z" fill="#2BBBC5"/>
</svg>
